<?xml version="1.0" encoding="utf-8"?>
<!-- Generator: Adobe Illustrator 21.0.0, SVG Export Plug-In . SVG Version: 6.00 Build 0)  -->
<svg version="1.1" id="Layer_1" xmlns="http://www.w3.org/2000/svg" xmlns:xlink="http://www.w3.org/1999/xlink" x="0px" y="0px"
	 viewBox="0 0 1366 768" style="enable-background:new 0 0 1366 768;" xml:space="preserve">
<style type="text/css">
	.st0{fill:#426394;}
	.st1{fill:#F0C2E3;}
	.st2{fill:#D47580;}
	.st3{fill:#ABBDC9;}
</style>
<g>
	<g>
		<circle class="st0" cx="476.9" cy="165.9" r="1.8"/>
	</g>
	<g>
		<circle class="st1" cx="486.5" cy="193.9" r="1.2"/>
	</g>
	<g>
		<circle class="st0" cx="426.2" cy="235.5" r="1"/>
	</g>
	<g>
		<ellipse class="st0" cx="403.6" cy="271.2" rx="1.1" ry="1.1"/>
	</g>
	<g>
		<ellipse class="st1" cx="546.7" cy="308" rx="1.8" ry="1.8"/>
	</g>
	<g>
		<path class="st1" d="M416.3,330.4c0,0.6-0.5,1-1,1c-0.6,0-1-0.5-1-1c0-0.6,0.5-1,1-1C415.9,329.4,416.3,329.9,416.3,330.4z"/>
	</g>
	<g>
		<ellipse class="st0" cx="500" cy="339.2" rx="1.2" ry="1.2"/>
	</g>
	<g>
		<circle class="st0" cx="521.7" cy="362.9" r="1.1"/>
	</g>
	<g>
		<circle class="st0" cx="478.3" cy="395.7" r="1.8"/>
	</g>
	<g>
		<path class="st0" d="M454.5,436.1c0,0.8-0.6,1.5-1.4,1.5c-0.8,0-1.4-0.6-1.4-1.5c0-0.8,0.6-1.4,1.4-1.4
			C453.9,434.6,454.5,435.3,454.5,436.1z"/>
	</g>
	<g>
		<ellipse class="st0" cx="365.6" cy="492.7" rx="0.8" ry="0.8"/>
	</g>
	<g>
		<path class="st0" d="M554.5,460.8c0,0.9-0.7,1.6-1.6,1.6c-0.9,0-1.6-0.7-1.6-1.6c0-0.9,0.7-1.6,1.6-1.6
			C553.8,459.2,554.5,459.9,554.5,460.8z"/>
	</g>
	<g>
		<circle class="st1" cx="506.6" cy="511.6" r="1.5"/>
	</g>
	<g>
		<path class="st2" d="M429,581.2c0,0.8-0.6,1.4-1.4,1.4c-0.8,0-1.4-0.6-1.4-1.4c0-0.8,0.6-1.4,1.4-1.4
			C428.4,579.8,429,580.4,429,581.2z"/>
	</g>
	<g>
		<ellipse class="st0" cx="476.5" cy="600.8" rx="1.1" ry="1.1"/>
	</g>
	<g>
		<path class="st0" d="M532.7,619.5c0,0.8-0.6,1.4-1.4,1.4c-0.8,0-1.4-0.6-1.4-1.4c0-0.8,0.6-1.4,1.4-1.4
			C532.1,618.1,532.7,618.7,532.7,619.5z"/>
	</g>
	<g>
		<path class="st0" d="M458.5,691.9c0,1-0.8,1.8-1.8,1.8c-1,0-1.8-0.8-1.8-1.8c0-1,0.8-1.8,1.8-1.8
			C457.7,690.1,458.5,690.9,458.5,691.9z"/>
	</g>
	<g>
		<ellipse class="st0" cx="557.5" cy="666" rx="1.6" ry="1.6"/>
	</g>
	<g>
		<path class="st0" d="M587.2,677.6c0,0.9-0.8,1.7-1.7,1.7s-1.7-0.8-1.7-1.7c0-0.9,0.8-1.7,1.7-1.7S587.2,676.7,587.2,677.6z"/>
	</g>
	<g>
		<path class="st0" d="M522.4,664.4c0,0.5-0.4,0.9-0.9,0.9c-0.5,0-0.9-0.4-0.9-0.9c0-0.5,0.4-0.9,0.9-0.9
			C522,663.5,522.4,663.9,522.4,664.4z"/>
	</g>
	<g>
		<path class="st0" d="M795.7,550.1c0,0.5-0.4,1-0.9,1c-0.5,0-0.9-0.4-0.9-1c0-0.5,0.4-1,0.9-1C795.3,549.2,795.7,549.6,795.7,550.1
			z"/>
	</g>
	<g>
		<path class="st3" d="M707.3,700.3c0,0.9-0.8,1.7-1.7,1.7c-0.9,0-1.7-0.8-1.7-1.7c0-1,0.8-1.7,1.7-1.7
			C706.6,698.6,707.3,699.4,707.3,700.3z"/>
	</g>
	<g>
		<path class="st0" d="M775.4,652.8c0,0.5-0.4,0.9-0.9,0.9s-0.9-0.4-0.9-0.9c0-0.5,0.4-0.9,0.9-0.9S775.4,652.2,775.4,652.8z"/>
	</g>
	<g>
		<path class="st2" d="M589,652.1c0,0.9-0.7,1.6-1.6,1.6c-0.9,0-1.6-0.7-1.6-1.6c0-0.9,0.7-1.6,1.6-1.6
			C588.3,650.5,589,651.2,589,652.1z"/>
	</g>
	<g>
		<ellipse class="st0" cx="562" cy="622.5" rx="1.5" ry="1.5"/>
	</g>
	<g>
		<path class="st3" d="M620.2,573.2c0,1-0.8,1.7-1.7,1.7c-1,0-1.7-0.8-1.7-1.7c0-1,0.8-1.7,1.7-1.7
			C619.5,571.4,620.2,572.2,620.2,573.2z"/>
	</g>
	<g>
		<path class="st0" d="M646.6,544.1c0,0.7-0.6,1.3-1.3,1.3s-1.3-0.6-1.3-1.3c0-0.7,0.6-1.3,1.3-1.3S646.6,543.4,646.6,544.1z"/>
	</g>
	<g>
		<path class="st0" d="M598.3,520.1c0,0.9-0.7,1.6-1.5,1.6c-0.9,0-1.6-0.7-1.6-1.6c0-0.9,0.7-1.5,1.6-1.5
			C597.6,518.6,598.3,519.3,598.3,520.1z"/>
	</g>
	<g>
		<path class="st1" d="M527,491.3c0,0.7-0.6,1.3-1.3,1.3c-0.7,0-1.3-0.6-1.3-1.3c0-0.7,0.6-1.3,1.3-1.3
			C526.4,490,527,490.6,527,491.3z"/>
	</g>
	<g>
		<path class="st3" d="M734.2,435.4c0,1-0.8,1.8-1.8,1.8c-1,0-1.8-0.8-1.8-1.8c0-1,0.8-1.8,1.8-1.8
			C733.4,433.7,734.2,434.5,734.2,435.4z"/>
	</g>
	<g>
		<path class="st0" d="M611.3,423.5c0,0.5-0.4,0.8-0.8,0.8c-0.5,0-0.8-0.4-0.8-0.8c0-0.5,0.4-0.9,0.8-0.9
			C610.9,422.6,611.3,423,611.3,423.5z"/>
	</g>
	<g>
		<circle class="st0" cx="647.5" cy="389.2" r="0.9"/>
	</g>
	<g>
		<path class="st0" d="M614.4,366.2c0,1-0.8,1.8-1.8,1.8c-1,0-1.8-0.8-1.8-1.8c0-1,0.8-1.8,1.8-1.8
			C613.6,364.5,614.4,365.3,614.4,366.2z"/>
	</g>
	<g>
		<circle class="st0" cx="575.9" cy="329.8" r="1.6"/>
	</g>
	<g>
		<path class="st0" d="M686.8,291.2c0,0.5-0.4,1-1,1c-0.5,0-1-0.4-1-1s0.4-1,1-1C686.4,290.2,686.8,290.7,686.8,291.2z"/>
	</g>
	<g>
		<circle class="st0" cx="615.3" cy="268.4" r="1.3"/>
	</g>
	<g>
		<circle class="st0" cx="590.9" cy="228.7" r="1.4"/>
	</g>
	<g>
		<circle class="st0" cx="571.4" cy="188.3" r="1.7"/>
	</g>
	<g>
		<path class="st2" d="M682.8,174.2c0,0.9-0.7,1.6-1.6,1.6c-0.9,0-1.6-0.7-1.6-1.6s0.7-1.6,1.6-1.6
			C682,172.6,682.8,173.3,682.8,174.2z"/>
	</g>
	<g>
		<ellipse class="st0" cx="690.1" cy="152.4" rx="1.4" ry="1.4"/>
	</g>
	<g>
		<circle class="st3" cx="628.7" cy="125" r="1.3"/>
	</g>
	<g>
		<ellipse class="st0" cx="737.1" cy="136.3" rx="1.1" ry="1.1"/>
	</g>
	<g>
		<ellipse class="st3" cx="646.3" cy="80.3" rx="1.8" ry="1.8"/>
	</g>
	<g>
		<path class="st0" d="M701.2,87.4c0,0.9-0.7,1.7-1.7,1.7c-0.9,0-1.7-0.7-1.7-1.7c0-0.9,0.8-1.7,1.7-1.7
			C700.5,85.7,701.2,86.4,701.2,87.4z"/>
	</g>
	<g>
		<path class="st0" d="M726.8,55.4c0,1-0.8,1.8-1.8,1.8c-1,0-1.8-0.8-1.8-1.8c0-1,0.8-1.8,1.8-1.8C725.9,53.5,726.8,54.4,726.8,55.4
			z"/>
	</g>
	<g>
		<path class="st0" d="M752.1,80.1c0,0.6-0.4,1-1,1c-0.6,0-1-0.5-1-1c0-0.6,0.5-1,1-1C751.6,79.1,752.1,79.5,752.1,80.1z"/>
	</g>
	<g>
		<circle class="st2" cx="663.3" cy="170.7" r="1.5"/>
	</g>
	<g>
		<circle class="st0" cx="738.2" cy="221.8" r="1.7"/>
	</g>
	<g>
		<path class="st0" d="M869.6,124.7c0,0.8-0.6,1.5-1.5,1.5c-0.8,0-1.5-0.7-1.5-1.5c0-0.8,0.7-1.5,1.5-1.5
			C868.9,123.2,869.6,123.9,869.6,124.7z"/>
	</g>
	<g>
		<ellipse class="st0" cx="887.4" cy="147.7" rx="1.2" ry="1.2"/>
	</g>
	<g>
		<path class="st3" d="M876.4,194.2c0,1-0.8,1.8-1.8,1.8c-1,0-1.8-0.8-1.8-1.8c0-1,0.8-1.8,1.8-1.8
			C875.6,192.4,876.4,193.2,876.4,194.2z"/>
	</g>
	<g>
		<ellipse class="st0" cx="721.9" cy="282.2" rx="1.1" ry="1.1"/>
	</g>
	<g>
		<circle class="st0" cx="913.5" cy="250.6" r="1.6"/>
	</g>
	<g>
		<path class="st1" d="M772.9,318.5c0,0.6-0.5,1-1,1c-0.6,0-1-0.5-1-1c0-0.6,0.5-1,1-1C772.4,317.5,772.9,318,772.9,318.5z"/>
	</g>
	<g>
		<path class="st0" d="M910.8,321.9c0,1-0.8,1.8-1.8,1.8s-1.8-0.8-1.8-1.8c0-1,0.8-1.8,1.8-1.8S910.8,320.8,910.8,321.9z"/>
	</g>
	<g>
		<path class="st0" d="M927.3,361.5c0,0.9-0.7,1.6-1.6,1.6c-0.9,0-1.6-0.7-1.6-1.6c0-0.9,0.7-1.6,1.6-1.6
			C926.6,359.9,927.3,360.6,927.3,361.5z"/>
	</g>
	<g>
		<circle class="st0" cx="732.4" cy="403.2" r="1.4"/>
	</g>
	<g>
		<path class="st0" d="M872.1,427.1c0,0.9-0.7,1.6-1.6,1.6c-0.9,0-1.6-0.7-1.6-1.6c0-0.9,0.7-1.6,1.6-1.6
			C871.4,425.5,872.1,426.2,872.1,427.1z"/>
	</g>
	<g>
		<path class="st0" d="M894.3,461.4c0,0.6-0.5,1.1-1.1,1.1c-0.6,0-1.1-0.5-1.1-1.1c0-0.6,0.5-1.1,1.1-1.1
			C893.8,460.3,894.3,460.8,894.3,461.4z"/>
	</g>
	<g>
		<path class="st2" d="M941.2,502.6c0,0.6-0.5,1.1-1.1,1.1c-0.6,0-1.1-0.5-1.1-1.1c0-0.6,0.5-1.1,1.1-1.1
			C940.7,501.5,941.2,502,941.2,502.6z"/>
	</g>
	<g>
		<path class="st0" d="M925,560c0,1-0.8,1.7-1.7,1.7c-1,0-1.7-0.8-1.7-1.7c0-1,0.8-1.7,1.7-1.7C924.3,558.3,925,559.1,925,560z"/>
	</g>
	<g>
		<path class="st0" d="M887.6,572.9c0,0.7-0.5,1.2-1.2,1.2c-0.7,0-1.2-0.5-1.2-1.2c0-0.7,0.5-1.2,1.2-1.2
			C887,571.7,887.6,572.2,887.6,572.9z"/>
	</g>
	<g>
		<path class="st1" d="M727.2,504.6c0,0.5-0.4,0.9-0.8,0.9c-0.5,0-0.8-0.4-0.8-0.9c0-0.5,0.4-0.8,0.8-0.8
			C726.9,503.8,727.2,504.2,727.2,504.6z"/>
	</g>
	<g>
		<path class="st1" d="M722.6,549.1c0,0.6-0.5,1-1,1c-0.6,0-1-0.5-1-1c0-0.6,0.5-1,1-1C722.2,548.1,722.6,548.6,722.6,549.1z"/>
	</g>
	<g>
		<path class="st0" d="M825.1,711.8c0,0.7-0.6,1.3-1.3,1.3c-0.7,0-1.3-0.6-1.3-1.3c0-0.7,0.6-1.3,1.3-1.3
			C824.5,710.5,825.1,711.1,825.1,711.8z"/>
	</g>
	<g>
		<path class="st0" d="M766.6,688.1c0,0.7-0.6,1.4-1.3,1.4c-0.8,0-1.4-0.6-1.4-1.4c0-0.7,0.6-1.3,1.4-1.3
			C765.9,686.7,766.6,687.3,766.6,688.1z"/>
	</g>
	<g>
		<path class="st0" d="M721.3,685.7c0,0.9-0.7,1.6-1.6,1.6c-0.9,0-1.6-0.7-1.6-1.6s0.7-1.6,1.6-1.6
			C720.6,684.1,721.3,684.8,721.3,685.7z"/>
	</g>
	<g>
		<path class="st0" d="M654.9,585.7c0,0.8-0.6,1.4-1.3,1.4c-0.7,0-1.4-0.6-1.4-1.4c0-0.7,0.6-1.3,1.4-1.3
			C654.3,584.3,654.9,584.9,654.9,585.7z"/>
	</g>
	<g>
		<ellipse class="st0" cx="638.9" cy="582.6" rx="1" ry="1"/>
	</g>
	<g>
		<path class="st0" d="M621.6,684.6c0,1-0.8,1.8-1.8,1.8c-1,0-1.8-0.8-1.8-1.8c0-1,0.8-1.8,1.8-1.8
			C620.8,682.8,621.6,683.6,621.6,684.6z"/>
	</g>
	<g>
		<path class="st0" d="M565.8,653.3c0,0.9-0.7,1.6-1.6,1.6c-0.9,0-1.6-0.7-1.6-1.6c0-0.9,0.7-1.6,1.6-1.6
			C565.1,651.7,565.8,652.4,565.8,653.3z"/>
	</g>
	<g>
		<ellipse class="st0" cx="528.6" cy="704.4" rx="1.5" ry="1.5"/>
	</g>
	<g>
		<path class="st0" d="M494.8,708.5c0,0.7-0.6,1.2-1.2,1.2c-0.7,0-1.2-0.6-1.2-1.2c0-0.7,0.6-1.2,1.2-1.2
			C494.3,707.2,494.8,707.8,494.8,708.5z"/>
	</g>
	<g>
		<path class="st0" d="M463.3,694.7c0,0.8-0.6,1.4-1.4,1.4c-0.8,0-1.4-0.6-1.4-1.4c0-0.8,0.6-1.4,1.4-1.4
			C462.6,693.2,463.3,693.9,463.3,694.7z"/>
	</g>
	<g>
		<path class="st0" d="M429.5,672.7c0,0.7-0.6,1.3-1.3,1.3c-0.7,0-1.3-0.6-1.3-1.3c0-0.7,0.6-1.3,1.3-1.3
			C428.9,671.4,429.5,672,429.5,672.7z"/>
	</g>
	<g>
		<ellipse class="st0" cx="410.5" cy="677.8" rx="1.3" ry="1.3"/>
	</g>
	<g>
		<path class="st0" d="M411.1,641.3c0,0.5-0.4,0.9-0.9,0.9c-0.5,0-0.9-0.4-0.9-0.9c0-0.5,0.4-0.9,0.9-0.9
			C410.7,640.4,411.1,640.8,411.1,641.3z"/>
	</g>
	<g>
		<ellipse class="st2" cx="442.5" cy="596.8" rx="1.4" ry="1.4"/>
	</g>
	<g>
		<path class="st2" d="M610.5,631.5c0,0.5-0.4,0.9-0.9,0.9c-0.5,0-0.9-0.4-0.9-0.9c0-0.5,0.4-0.9,0.9-0.9
			C610.1,630.5,610.5,631,610.5,631.5z"/>
	</g>
	<g>
		<path class="st0" d="M536.4,605.7c0,0.8-0.6,1.4-1.5,1.4c-0.8,0-1.4-0.6-1.4-1.4c0-0.8,0.6-1.5,1.4-1.5
			C535.8,604.2,536.4,604.9,536.4,605.7z"/>
	</g>
	<g>
		<path class="st2" d="M579.8,653.5c0,0.6-0.5,1.2-1.2,1.2c-0.6,0-1.2-0.5-1.2-1.2c0-0.6,0.5-1.2,1.2-1.2
			C579.3,652.3,579.8,652.8,579.8,653.5z"/>
	</g>
	<g>
		<path class="st0" d="M600.2,540.3c0,0.9-0.7,1.7-1.7,1.7c-0.9,0-1.7-0.8-1.7-1.7c0-0.9,0.8-1.7,1.7-1.7
			C599.5,538.6,600.2,539.4,600.2,540.3z"/>
	</g>
	<g>
		<path class="st0" d="M661.3,704c0,0.8-0.6,1.4-1.4,1.4c-0.8,0-1.4-0.6-1.4-1.4s0.6-1.4,1.4-1.4C660.7,702.6,661.3,703.3,661.3,704
			z"/>
	</g>
	<g>
		<path class="st0" d="M658.4,547.8c0,0.6-0.5,1.2-1.2,1.2s-1.2-0.5-1.2-1.2c0-0.6,0.5-1.2,1.2-1.2S658.4,547.2,658.4,547.8z"/>
	</g>
	<g>
		<path class="st0" d="M710.1,670.5c0,0.6-0.5,1-1,1c-0.6,0-1-0.5-1-1c0-0.6,0.5-1,1-1C709.6,669.5,710.1,670,710.1,670.5z"/>
	</g>
	<g>
		<path class="st1" d="M721.1,523.8c0,0.6-0.5,1-1,1c-0.6,0-1-0.5-1-1c0-0.6,0.5-1,1-1C720.6,522.7,721.1,523.2,721.1,523.8z"/>
	</g>
	<g>
		<path class="st1" d="M757.3,515.1c0,0.6-0.5,1.2-1.2,1.2c-0.6,0-1.2-0.5-1.2-1.2s0.5-1.2,1.2-1.2
			C756.8,514,757.3,514.5,757.3,515.1z"/>
	</g>
	<g>
		<path class="st1" d="M811.2,682.1c0,0.6-0.5,1.1-1.1,1.1c-0.6,0-1.1-0.5-1.1-1.1c0-0.6,0.5-1.1,1.1-1.1
			C810.7,681.1,811.2,681.5,811.2,682.1z"/>
	</g>
	<g>
		<path class="st0" d="M839,706.4c0,0.6-0.5,1.2-1.2,1.2c-0.7,0-1.2-0.5-1.2-1.2c0-0.6,0.5-1.2,1.2-1.2
			C838.4,705.2,839,705.8,839,706.4z"/>
	</g>
	<g>
		<ellipse class="st0" cx="861.8" cy="631.5" rx="1.4" ry="1.4"/>
	</g>
	<g>
		<path class="st0" d="M897.9,687.6c0,0.9-0.7,1.7-1.6,1.7c-0.9,0-1.7-0.8-1.7-1.7c0-0.9,0.7-1.7,1.7-1.7
			C897.2,685.9,897.9,686.7,897.9,687.6z"/>
	</g>
	<g>
		<path class="st2" d="M892,507.9c0,0.6-0.5,1.1-1.2,1.1c-0.6,0-1.1-0.5-1.1-1.1c0-0.6,0.5-1.2,1.1-1.2
			C891.5,506.8,892,507.3,892,507.9z"/>
	</g>
	<g>
		<path class="st3" d="M944,616.9c0,0.8-0.6,1.4-1.4,1.4c-0.8,0-1.4-0.6-1.4-1.4s0.6-1.4,1.4-1.4C943.4,615.5,944,616.1,944,616.9z"
			/>
	</g>
	<g>
		<path class="st3" d="M992.3,683.1c0,0.8-0.6,1.4-1.4,1.4c-0.8,0-1.4-0.6-1.4-1.4c0-0.8,0.6-1.4,1.4-1.4
			C991.7,681.7,992.3,682.3,992.3,683.1z"/>
	</g>
	<g>
		<path class="st0" d="M993.5,562.1c0,0.9-0.7,1.6-1.6,1.6c-0.9,0-1.6-0.7-1.6-1.6c0-0.9,0.7-1.6,1.6-1.6
			C992.7,560.4,993.5,561.2,993.5,562.1z"/>
	</g>
	<g>
		<path class="st1" d="M968.4,539.6c0,0.7-0.6,1.3-1.3,1.3c-0.7,0-1.3-0.6-1.3-1.3s0.6-1.3,1.3-1.3
			C967.8,538.3,968.4,538.9,968.4,539.6z"/>
	</g>
	<g>
		<circle class="st2" cx="939.6" cy="491.4" r="1"/>
	</g>
	<g>
		<path class="st0" d="M912.7,476.7c0,0.7-0.6,1.2-1.2,1.2c-0.7,0-1.2-0.5-1.2-1.2c0-0.7,0.6-1.2,1.2-1.2
			C912.1,475.5,912.7,476.1,912.7,476.7z"/>
	</g>
	<g>
		<path class="st0" d="M879,575c0,0.6-0.5,1.1-1.1,1.1s-1.1-0.5-1.1-1.1c0-0.6,0.5-1.1,1.1-1.1S879,574.4,879,575z"/>
	</g>
	<g>
		<path class="st2" d="M846,424.5c0,0.8-0.7,1.5-1.5,1.5c-0.8,0-1.5-0.7-1.5-1.5c0-0.8,0.6-1.5,1.5-1.5
			C845.4,423.1,846,423.7,846,424.5z"/>
	</g>
	<g>
		<path class="st0" d="M815.2,438.2c0,0.5-0.4,0.8-0.8,0.8c-0.5,0-0.9-0.4-0.9-0.8c0-0.5,0.4-0.8,0.9-0.8
			C814.9,437.4,815.2,437.8,815.2,438.2z"/>
	</g>
	<g>
		<path class="st0" d="M789.5,451c0,0.7-0.6,1.3-1.3,1.3c-0.7,0-1.3-0.6-1.3-1.3c0-0.7,0.6-1.3,1.3-1.3
			C788.9,449.8,789.5,450.3,789.5,451z"/>
	</g>
	<g>
		<path class="st0" d="M748.8,542.3c0,0.5-0.4,0.9-0.9,0.9c-0.5,0-0.9-0.4-0.9-0.9c0-0.5,0.4-0.9,0.9-0.9
			C748.4,541.4,748.8,541.8,748.8,542.3z"/>
	</g>
	<g>
		<path class="st0" d="M701.9,634.9c0,0.8-0.6,1.4-1.4,1.4c-0.8,0-1.4-0.6-1.4-1.4c0-0.8,0.6-1.4,1.4-1.4
			C701.2,633.5,701.9,634.1,701.9,634.9z"/>
	</g>
	<g>
		<path class="st0" d="M672.1,626c0,0.8-0.7,1.5-1.5,1.5c-0.8,0-1.5-0.6-1.5-1.5c0-0.8,0.7-1.5,1.5-1.5
			C671.5,624.5,672.1,625.1,672.1,626z"/>
	</g>
	<g>
		<circle class="st0" cx="662.3" cy="438.4" r="1.8"/>
	</g>
	<g>
		<path class="st3" d="M625.3,572c0,0.6-0.5,1.2-1.2,1.2c-0.7,0-1.2-0.5-1.2-1.2c0-0.6,0.5-1.2,1.2-1.2
			C624.7,570.8,625.3,571.3,625.3,572z"/>
	</g>
	<g>
		<path class="st3" d="M601,558.8c0,0.5-0.4,0.9-0.9,0.9c-0.5,0-0.9-0.4-0.9-0.9c0-0.5,0.4-0.9,0.9-0.9
			C600.6,557.9,601,558.3,601,558.8z"/>
	</g>
	<g>
		<ellipse class="st0" cx="574.4" cy="494" rx="1.3" ry="1.3"/>
	</g>
	<g>
		<path class="st0" d="M563.9,409.6c0,1-0.8,1.8-1.8,1.8c-1,0-1.8-0.8-1.8-1.8c0-1,0.8-1.8,1.8-1.8
			C563.1,407.8,563.9,408.6,563.9,409.6z"/>
	</g>
	<g>
		<path class="st0" d="M480.6,594.4c0,0.9-0.7,1.6-1.6,1.6s-1.6-0.7-1.6-1.6c0-0.9,0.7-1.6,1.6-1.6S480.6,593.5,480.6,594.4z"/>
	</g>
	<g>
		<circle class="st0" cx="499.2" cy="392" r="0.9"/>
	</g>
	<g>
		<circle class="st0" cx="486.3" cy="376.1" r="1.8"/>
	</g>
	<g>
		<path class="st3" d="M402.7,523.3c0,0.7-0.6,1.3-1.3,1.3c-0.7,0-1.3-0.6-1.3-1.3c0-0.7,0.6-1.3,1.3-1.3
			C402.1,522,402.7,522.6,402.7,523.3z"/>
	</g>
	<g>
		<path class="st2" d="M417,410c0,0.8-0.6,1.4-1.4,1.4c-0.8,0-1.4-0.6-1.4-1.4c0-0.8,0.6-1.4,1.4-1.4C416.4,408.5,417,409.2,417,410
			z"/>
	</g>
	<g>
		<circle class="st0" cx="426.5" cy="376.4" r="1.2"/>
	</g>
	<g>
		<path class="st3" d="M433.6,476.3c0,0.8-0.7,1.5-1.5,1.5c-0.8,0-1.5-0.7-1.5-1.5c0-0.8,0.7-1.5,1.5-1.5
			C432.9,474.8,433.6,475.4,433.6,476.3z"/>
	</g>
	<g>
		<circle class="st0" cx="355.4" cy="352.6" r="1.4"/>
	</g>
	<g>
		<ellipse class="st0" cx="398.6" cy="459.3" rx="1.1" ry="1.1"/>
	</g>
	<g>
		<path class="st3" d="M431.1,457.9c0,0.9-0.7,1.6-1.6,1.6c-0.9,0-1.5-0.7-1.5-1.6c0-0.9,0.7-1.5,1.5-1.5
			C430.4,456.4,431.1,457.1,431.1,457.9z"/>
	</g>
	<g>
		<path class="st3" d="M460.4,476.3c0,0.7-0.6,1.3-1.3,1.3c-0.7,0-1.3-0.6-1.3-1.3c0-0.7,0.6-1.3,1.3-1.3
			C459.9,475,460.4,475.6,460.4,476.3z"/>
	</g>
	<g>
		<circle class="st0" cx="489.5" cy="333" r="1.3"/>
	</g>
	<g>
		<path class="st0" d="M516.2,398.2c0,0.5-0.4,0.9-0.9,0.9c-0.5,0-0.9-0.4-0.9-0.9c0-0.5,0.4-0.9,0.9-0.9
			C515.8,397.3,516.2,397.7,516.2,398.2z"/>
	</g>
	<g>
		<path class="st0" d="M542.4,462.3c0,0.8-0.7,1.5-1.5,1.5c-0.8,0-1.5-0.7-1.5-1.5c0-0.8,0.7-1.5,1.5-1.5
			C541.7,460.8,542.4,461.5,542.4,462.3z"/>
	</g>
	<g>
		<circle class="st3" cx="564.4" cy="404.4" r="1.2"/>
	</g>
	<g>
		<path class="st0" d="M601.9,354.5c0,0.8-0.6,1.4-1.4,1.4c-0.8,0-1.5-0.6-1.5-1.4c0-0.8,0.6-1.5,1.5-1.5
			C601.2,353.1,601.9,353.7,601.9,354.5z"/>
	</g>
	<g>
		<path class="st0" d="M627.9,425.9c0,0.7-0.5,1.2-1.2,1.2c-0.7,0-1.2-0.5-1.2-1.2c0-0.7,0.5-1.2,1.2-1.2
			C627.4,424.7,627.9,425.2,627.9,425.9z"/>
	</g>
	<g>
		<path class="st0" d="M662,436.4c0,0.8-0.7,1.5-1.5,1.5c-0.8,0-1.5-0.7-1.5-1.5c0-0.8,0.7-1.5,1.5-1.5
			C661.4,434.9,662,435.6,662,436.4z"/>
	</g>
	<g>
		<circle class="st0" cx="682.7" cy="319" r="1.1"/>
	</g>
	<g>
		<ellipse class="st0" cx="725.4" cy="423.9" rx="1.7" ry="1.7"/>
	</g>
	<g>
		<path class="st0" d="M756,305.5c0,1-0.8,1.8-1.8,1.8c-1,0-1.8-0.8-1.8-1.8c0-1,0.8-1.8,1.8-1.8C755.2,303.7,756,304.5,756,305.5z"
			/>
	</g>
	<g>
		<ellipse class="st0" cx="979.9" cy="268" rx="1.5" ry="1.5"/>
	</g>
	<g>
		<path class="st0" d="M823.8,454.4c0,0.7-0.5,1.2-1.2,1.2c-0.7,0-1.2-0.5-1.2-1.2c0-0.7,0.5-1.2,1.2-1.2
			C823.3,453.2,823.8,453.7,823.8,454.4z"/>
	</g>
	<g>
		<path class="st0" d="M847.7,453.7c0,0.7-0.6,1.3-1.3,1.3c-0.7,0-1.3-0.6-1.3-1.3c0-0.7,0.6-1.2,1.3-1.2
			C847.1,452.5,847.7,453,847.7,453.7z"/>
	</g>
	<g>
		<ellipse class="st3" cx="875.1" cy="351.6" rx="1.5" ry="1.5"/>
	</g>
	<g>
		<path class="st3" d="M904.3,362.6c0,0.9-0.7,1.6-1.6,1.6c-0.9,0-1.6-0.7-1.6-1.6c0-0.9,0.7-1.6,1.6-1.6
			C903.6,361,904.3,361.7,904.3,362.6z"/>
	</g>
	<g>
		<path class="st0" d="M938.7,408.2c0,1-0.8,1.8-1.8,1.8c-1,0-1.8-0.8-1.8-1.8s0.8-1.8,1.8-1.8C937.9,406.4,938.7,407.2,938.7,408.2
			z"/>
	</g>
	<g>
		<path class="st0" d="M986.6,489.7c0,0.6-0.5,1.1-1.1,1.1c-0.6,0-1.1-0.5-1.1-1.1c0-0.6,0.5-1.1,1.1-1.1
			C986.2,488.6,986.6,489.1,986.6,489.7z"/>
	</g>
	<g>
		<path class="st0" d="M1004,378.6c0,0.5-0.4,0.9-0.9,0.9c-0.5,0-0.9-0.4-0.9-0.9c0-0.5,0.4-0.9,0.9-0.9
			C1003.6,377.7,1004,378.1,1004,378.6z"/>
	</g>
	<g>
		<path class="st0" d="M1013.9,186c0,1-0.8,1.8-1.8,1.8c-1,0-1.8-0.8-1.8-1.8c0-1,0.8-1.8,1.8-1.8
			C1013.1,184.3,1013.9,185.1,1013.9,186z"/>
	</g>
	<g>
		<path class="st0" d="M935.4,358.7c0,0.6-0.5,1-1,1c-0.6,0-1-0.5-1-1c0-0.6,0.5-1,1-1C934.9,357.7,935.4,358.1,935.4,358.7z"/>
	</g>
	<g>
		<path class="st0" d="M937.5,199.3c0,0.8-0.7,1.5-1.5,1.5c-0.8,0-1.5-0.7-1.5-1.5c0-0.8,0.7-1.5,1.5-1.5
			C936.8,197.8,937.5,198.4,937.5,199.3z"/>
	</g>
	<g>
		<path class="st0" d="M904.6,141.2c0,0.8-0.7,1.5-1.5,1.5c-0.9,0-1.5-0.7-1.5-1.5c0-0.8,0.7-1.5,1.5-1.5
			C904,139.7,904.6,140.4,904.6,141.2z"/>
	</g>
	<g>
		<path class="st0" d="M857.7,231.3c0,0.8-0.7,1.5-1.5,1.5c-0.8,0-1.5-0.7-1.5-1.5c0-0.8,0.7-1.5,1.5-1.5
			C857,229.8,857.7,230.5,857.7,231.3z"/>
	</g>
	<g>
		<circle class="st0" cx="826.3" cy="232.9" r="1"/>
	</g>
	<g>
		<path class="st1" d="M793.8,318.8c0,1-0.8,1.8-1.8,1.8c-1,0-1.8-0.8-1.8-1.8c0-1,0.8-1.8,1.8-1.8C793,317,793.8,317.8,793.8,318.8
			z"/>
	</g>
	<g>
		<path class="st0" d="M761.6,298.7c0,0.6-0.5,1.1-1.1,1.1c-0.6,0-1.1-0.5-1.1-1.1c0-0.6,0.5-1.1,1.1-1.1
			C761.1,297.7,761.6,298.1,761.6,298.7z"/>
	</g>
	<g>
		<ellipse class="st0" cx="735.2" cy="298.5" rx="1" ry="1"/>
	</g>
	<g>
		<ellipse class="st0" cx="708.5" cy="269" rx="1" ry="1"/>
	</g>
	<g>
		<circle class="st0" cx="674.6" cy="309.3" r="1.4"/>
	</g>
	<g>
		<circle class="st0" cx="640.6" cy="301.5" r="1.6"/>
	</g>
	<g>
		<ellipse class="st0" cx="606.6" cy="219.6" rx="0.8" ry="0.8"/>
	</g>
	<g>
		<circle class="st0" cx="573.8" cy="146.1" r="1.7"/>
	</g>
	<g>
		<ellipse class="st0" cx="533.6" cy="201.1" rx="0.8" ry="0.8"/>
	</g>
	<g>
		<path class="st1" d="M499.9,177.5c0,0.6-0.5,1.1-1.1,1.1c-0.6,0-1.1-0.5-1.1-1.1c0-0.6,0.5-1.1,1.1-1.1
			C499.4,176.4,499.9,176.9,499.9,177.5z"/>
	</g>
	<g>
		<ellipse class="st0" cx="475.2" cy="329.1" rx="1.6" ry="1.6"/>
	</g>
	<g>
		<path class="st3" d="M443.3,179.3c0,1-0.8,1.7-1.7,1.7c-1,0-1.8-0.8-1.8-1.7c0-1,0.8-1.8,1.8-1.8
			C442.5,177.6,443.3,178.3,443.3,179.3z"/>
	</g>
	<g>
		<circle class="st1" cx="412.2" cy="290.7" r="1.8"/>
	</g>
	<g>
		<path class="st0" d="M354.9,89.6c0,0.5-0.4,0.9-1,0.9c-0.5,0-1-0.4-1-0.9c0-0.5,0.4-1,1-1C354.5,88.6,354.9,89,354.9,89.6z"/>
	</g>
	<g>
		<ellipse class="st1" cx="414.6" cy="312" rx="1.6" ry="1.6"/>
	</g>
	<g>
		<ellipse class="st0" cx="355.4" cy="196.6" rx="1.8" ry="1.8"/>
	</g>
	<g>
		<circle class="st0" cx="420" cy="133.5" r="1.7"/>
	</g>
	<g>
		<circle class="st0" cx="495.2" cy="279.2" r="1.3"/>
	</g>
	<g>
		<circle class="st3" cx="523" cy="237.4" r="1.5"/>
	</g>
	<g>
		<path class="st1" d="M765.4,368c0,1-0.8,1.7-1.7,1.7s-1.7-0.8-1.7-1.7c0-1,0.8-1.7,1.7-1.7S765.4,367.1,765.4,368z"/>
	</g>
	<g>
		<circle class="st1" cx="594" cy="319.7" r="0.9"/>
	</g>
	<g>
		<circle class="st0" cx="611.9" cy="284.8" r="1.6"/>
	</g>
	<g>
		<circle class="st0" cx="642.6" cy="268.4" r="1.2"/>
	</g>
	<g>
		<path class="st0" d="M664.1,203.7c0,0.9-0.7,1.6-1.6,1.6c-0.9,0-1.6-0.7-1.6-1.6c0-0.9,0.7-1.7,1.6-1.7
			C663.4,202.1,664.1,202.8,664.1,203.7z"/>
	</g>
	<g>
		<path class="st0" d="M723.4,289.1c0,0.7-0.5,1.2-1.2,1.2c-0.7,0-1.2-0.5-1.2-1.2c0-0.7,0.5-1.2,1.2-1.2
			C722.9,287.9,723.4,288.5,723.4,289.1z"/>
	</g>
	<g>
		<ellipse class="st0" cx="725.6" cy="155.2" rx="1.7" ry="1.7"/>
	</g>
	<g>
		<path class="st0" d="M754.8,156.9c0,0.8-0.6,1.4-1.5,1.4c-0.8,0-1.4-0.6-1.4-1.4c0-0.8,0.6-1.4,1.4-1.4
			C754.1,155.5,754.8,156.1,754.8,156.9z"/>
	</g>
	<g>
		<circle class="st0" cx="788.8" cy="192.3" r="1.3"/>
	</g>
	<g>
		<path class="st0" d="M833.9,248.9c0,1-0.8,1.8-1.8,1.8c-1,0-1.8-0.8-1.8-1.8c0-1,0.8-1.8,1.8-1.8
			C833.1,247.2,833.9,248,833.9,248.9z"/>
	</g>
	<g>
		<path class="st0" d="M913,213.3c0,0.7-0.6,1.3-1.3,1.3c-0.7,0-1.3-0.6-1.3-1.3c0-0.7,0.6-1.3,1.3-1.3
			C912.5,212,913,212.6,913,213.3z"/>
	</g>
	<g>
		<path class="st0" d="M796.1,155.5c0,0.8-0.6,1.4-1.4,1.4c-0.7,0-1.4-0.6-1.4-1.4c0-0.7,0.6-1.3,1.4-1.3
			C795.5,154.2,796.1,154.8,796.1,155.5z"/>
	</g>
	<g>
		<circle class="st0" cx="428.3" cy="113.1" r="1.2"/>
	</g>
</g>
<g>
	<g>
		<circle class="st0" cx="402.7" cy="50.2" r="2"/>
	</g>
	<g>
		<circle class="st1" cx="413.6" cy="82.1" r="1.4"/>
	</g>
	<g>
		<circle class="st0" cx="345.1" cy="129.3" r="1.2"/>
	</g>
	<g>
		<ellipse class="st0" cx="319.4" cy="170" rx="1.3" ry="1.3"/>
	</g>
	<g>
		<ellipse class="st1" cx="482.1" cy="211.7" rx="2.1" ry="2.1"/>
	</g>
	<g>
		<path class="st1" d="M333.9,237.2c0,0.6-0.5,1.2-1.2,1.2c-0.6,0-1.2-0.5-1.2-1.2c0-0.6,0.5-1.2,1.2-1.2
			C333.4,236.1,333.9,236.6,333.9,237.2z"/>
	</g>
	<g>
		<ellipse class="st0" cx="429" cy="247.2" rx="1.3" ry="1.4"/>
	</g>
	<g>
		<circle class="st0" cx="453.6" cy="274.1" r="1.3"/>
	</g>
	<g>
		<circle class="st0" cx="404.4" cy="311.4" r="2"/>
	</g>
	<g>
		<path class="st0" d="M377.3,357.3c0,0.9-0.7,1.6-1.6,1.6c-0.9,0-1.6-0.7-1.6-1.6c0-0.9,0.7-1.6,1.6-1.6
			C376.6,355.6,377.3,356.4,377.3,357.3z"/>
	</g>
	<g>
		<ellipse class="st0" cx="276.3" cy="421.6" rx="1" ry="1"/>
	</g>
	<g>
		<path class="st0" d="M491,385.4c0,1-0.8,1.8-1.8,1.8c-1,0-1.8-0.8-1.8-1.8c0-1,0.8-1.8,1.8-1.8C490.2,383.6,491,384.4,491,385.4z"
			/>
	</g>
	<g>
		<path class="st1" d="M438.2,443.1c0,1-0.8,1.8-1.8,1.8c-1,0-1.8-0.8-1.8-1.8c0-1,0.8-1.8,1.8-1.8
			C437.4,441.3,438.2,442.1,438.2,443.1z"/>
	</g>
	<g>
		<path class="st2" d="M348.3,522.2c0,0.9-0.7,1.6-1.6,1.6c-0.9,0-1.6-0.7-1.6-1.6c0-0.9,0.7-1.6,1.6-1.6
			C347.6,520.5,348.3,521.3,348.3,522.2z"/>
	</g>
	<g>
		<ellipse class="st0" cx="402.3" cy="544.5" rx="1.2" ry="1.2"/>
	</g>
	<g>
		<path class="st0" d="M466.1,565.7c0,0.9-0.7,1.5-1.6,1.5c-0.9,0-1.5-0.7-1.5-1.5c0-0.9,0.7-1.5,1.5-1.5
			C465.4,564.1,466.1,564.8,466.1,565.7z"/>
	</g>
	<g>
		<path class="st0" d="M381.8,647.9c0,1.1-0.9,2.1-2.1,2.1c-1.1,0-2.1-0.9-2.1-2.1c0-1.1,0.9-2.1,2.1-2.1
			C380.9,645.9,381.8,646.8,381.8,647.9z"/>
	</g>
	<g>
		<ellipse class="st0" cx="494.3" cy="618.6" rx="1.8" ry="1.8"/>
	</g>
	<g>
		<path class="st0" d="M528.1,631.7c0,1.1-0.9,1.9-2,1.9c-1.1,0-1.9-0.9-1.9-1.9c0-1.1,0.9-2,1.9-2
			C527.2,629.8,528.1,630.7,528.1,631.7z"/>
	</g>
	<g>
		<path class="st0" d="M454.4,616.7c0,0.6-0.4,1-1,1c-0.6,0-1-0.4-1-1c0-0.6,0.5-1,1-1C454,615.7,454.4,616.2,454.4,616.7z"/>
	</g>
	<g>
		<path class="st0" d="M765,486.9c0,0.6-0.5,1.1-1.1,1.1c-0.6,0-1.1-0.5-1.1-1.1c0-0.6,0.5-1.1,1.1-1.1
			C764.5,485.8,765,486.3,765,486.9z"/>
	</g>
	<g>
		<path class="st3" d="M664.6,657.5c0,1.1-0.9,1.9-2,1.9c-1.1,0-2-0.9-2-1.9c0-1.1,0.9-2,2-2C663.7,655.6,664.6,656.5,664.6,657.5z"
			/>
	</g>
	<g>
		<path class="st0" d="M742,603.5c0,0.6-0.5,1.1-1.1,1.1c-0.6,0-1.1-0.5-1.1-1.1c0-0.6,0.5-1.1,1.1-1.1
			C741.5,602.4,742,602.9,742,603.5z"/>
	</g>
	<g>
		<path class="st2" d="M530.1,602.7c0,1-0.8,1.8-1.8,1.8c-1,0-1.8-0.8-1.8-1.8c0-1,0.8-1.8,1.8-1.8
			C529.3,600.9,530.1,601.7,530.1,602.7z"/>
	</g>
	<g>
		<ellipse class="st0" cx="499.4" cy="569.1" rx="1.7" ry="1.6"/>
	</g>
	<g>
		<path class="st3" d="M565.6,513.1c0,1.1-0.9,2-2,2c-1.1,0-2-0.9-2-2c0-1.1,0.9-2,2-2C564.7,511.1,565.6,512,565.6,513.1z"/>
	</g>
	<g>
		<path class="st0" d="M595.6,480c0,0.8-0.7,1.5-1.5,1.5c-0.8,0-1.5-0.7-1.5-1.5c0-0.8,0.7-1.5,1.5-1.5
			C594.9,478.5,595.6,479.2,595.6,480z"/>
	</g>
	<g>
		<path class="st0" d="M540.7,452.8c0,1-0.8,1.8-1.8,1.8c-1,0-1.8-0.8-1.8-1.8c0-1,0.8-1.8,1.8-1.8
			C539.9,451.1,540.7,451.8,540.7,452.8z"/>
	</g>
	<g>
		<path class="st1" d="M459.6,420c0,0.8-0.6,1.4-1.4,1.4c-0.8,0-1.4-0.6-1.4-1.4c0-0.8,0.6-1.4,1.4-1.4
			C459,418.5,459.6,419.2,459.6,420z"/>
	</g>
	<g>
		<path class="st3" d="M695.1,356.5c0,1.1-0.9,2-2,2c-1.1,0-2-0.9-2-2c0-1.1,0.9-2,2-2C694.2,354.5,695.1,355.4,695.1,356.5z"/>
	</g>
	<g>
		<path class="st0" d="M555.5,342.9c0,0.5-0.4,0.9-1,0.9c-0.5,0-0.9-0.4-0.9-0.9c0-0.5,0.4-1,0.9-1C555,342,555.5,342.4,555.5,342.9
			z"/>
	</g>
	<g>
		<circle class="st0" cx="596.6" cy="304" r="1"/>
	</g>
	<g>
		<path class="st0" d="M588,292.9c0,1.1-0.9,2-2,2c-1.1,0-2-0.9-2-2c0-1.1,0.9-2,2-2C587.1,290.9,588,291.8,588,292.9z"/>
	</g>
	<g>
		<circle class="st0" cx="515.3" cy="236.5" r="1.8"/>
	</g>
	<g>
		<path class="st0" d="M641.3,192.7c0,0.6-0.5,1.1-1.1,1.1c-0.6,0-1.1-0.5-1.1-1.1s0.5-1.1,1.1-1.1
			C640.8,191.6,641.3,192.1,641.3,192.7z"/>
	</g>
	<g>
		<circle class="st0" cx="560" cy="166.7" r="1.5"/>
	</g>
	<g>
		<circle class="st0" cx="532.3" cy="121.7" r="1.6"/>
	</g>
	<g>
		<circle class="st0" cx="510.1" cy="75.8" r="1.9"/>
	</g>
	<g>
		<path class="st2" d="M636.7,59.7c0,1-0.8,1.8-1.8,1.8c-1,0-1.8-0.8-1.8-1.8s0.8-1.8,1.8-1.8C635.8,57.9,636.7,58.7,636.7,59.7z"/>
	</g>
	<g>
		<ellipse class="st0" cx="645" cy="34.9" rx="1.6" ry="1.6"/>
	</g>
	<g>
		<circle class="st3" cx="575.3" cy="3.8" r="1.5"/>
	</g>
	<g>
		<ellipse class="st0" cx="698.4" cy="16.6" rx="1.3" ry="1.2"/>
	</g>
	<g>
		<ellipse class="st3" cx="595.2" cy="-47" rx="2" ry="2"/>
	</g>
	<g>
		<path class="st0" d="M657.6-39c0,1-0.8,1.9-1.9,1.9c-1,0-1.9-0.8-1.9-1.9c0-1,0.9-1.9,1.9-1.9C656.8-40.9,657.6-40,657.6-39z"/>
	</g>
	<g>
		<path class="st0" d="M686.7-75.3c0,1.2-0.9,2.1-2.1,2.1c-1.1,0-2.1-0.9-2.1-2.1c0-1.1,0.9-2.1,2.1-2.1
			C685.7-77.4,686.7-76.5,686.7-75.3z"/>
	</g>
	<g>
		<path class="st0" d="M715.4-47.2c0,0.6-0.5,1.2-1.1,1.2c-0.6,0-1.1-0.5-1.1-1.2c0-0.6,0.5-1.2,1.1-1.2
			C714.9-48.4,715.4-47.9,715.4-47.2z"/>
	</g>
	<g>
		<circle class="st2" cx="614.6" cy="55.7" r="1.7"/>
	</g>
	<g>
		<circle class="st0" cx="699.7" cy="113.8" r="1.9"/>
	</g>
	<g>
		<path class="st0" d="M849,3.4c0,0.9-0.7,1.7-1.6,1.7c-0.9,0-1.7-0.7-1.7-1.7c0-0.9,0.8-1.7,1.7-1.7C848.2,1.7,849,2.5,849,3.4z"/>
	</g>
	<g>
		<ellipse class="st0" cx="869.2" cy="29.6" rx="1.4" ry="1.4"/>
	</g>
	<g>
		<path class="st3" d="M856.7,82.4c0,1.1-0.9,2-2,2c-1.1,0-2-0.9-2-2c0-1.1,0.9-2,2-2C855.8,80.4,856.7,81.3,856.7,82.4z"/>
	</g>
	<g>
		<ellipse class="st0" cx="681.1" cy="182.4" rx="1.2" ry="1.2"/>
	</g>
	<g>
		<circle class="st0" cx="898.8" cy="146.5" r="1.9"/>
	</g>
	<g>
		<path class="st1" d="M739,223.7c0,0.6-0.5,1.2-1.2,1.2c-0.6,0-1.2-0.5-1.2-1.2c0-0.6,0.5-1.2,1.2-1.2
			C738.5,222.5,739,223,739,223.7z"/>
	</g>
	<g>
		<path class="st0" d="M895.7,227.5c0,1.1-0.9,2.1-2.1,2.1s-2.1-0.9-2.1-2.1c0-1.2,0.9-2.1,2.1-2.1S895.7,226.3,895.7,227.5z"/>
	</g>
	<g>
		<path class="st0" d="M914.6,272.5c0,1-0.8,1.8-1.8,1.8c-1,0-1.8-0.8-1.8-1.8c0-1,0.8-1.8,1.8-1.8
			C913.8,270.7,914.6,271.5,914.6,272.5z"/>
	</g>
	<g>
		<circle class="st0" cx="693.1" cy="319.9" r="1.6"/>
	</g>
	<g>
		<path class="st0" d="M851.8,347.1c0,1-0.8,1.8-1.8,1.8c-1,0-1.8-0.8-1.8-1.8c0-1,0.8-1.8,1.8-1.8
			C851,345.3,851.8,346.1,851.8,347.1z"/>
	</g>
	<g>
		<path class="st0" d="M877,386.1c0,0.7-0.6,1.2-1.3,1.2c-0.7,0-1.3-0.5-1.3-1.2c0-0.7,0.6-1.3,1.3-1.3
			C876.5,384.8,877,385.4,877,386.1z"/>
	</g>
	<g>
		<path class="st2" d="M930.4,432.8c0,0.7-0.6,1.3-1.2,1.3c-0.7,0-1.3-0.6-1.3-1.3c0-0.7,0.6-1.2,1.3-1.2
			C929.8,431.6,930.4,432.1,930.4,432.8z"/>
	</g>
	<g>
		<path class="st0" d="M912,498.1c0,1.1-0.9,2-2,2c-1.1,0-2-0.9-2-2c0-1.1,0.9-2,2-2C911.1,496.2,912,497,912,498.1z"/>
	</g>
	<g>
		<path class="st0" d="M869.4,512.7c0,0.8-0.6,1.4-1.4,1.4c-0.8,0-1.4-0.6-1.4-1.4c0-0.8,0.6-1.4,1.4-1.4
			C868.8,511.4,869.4,512,869.4,512.7z"/>
	</g>
	<g>
		<path class="st1" d="M687.2,435.2c0,0.5-0.4,1-1,1c-0.5,0-1-0.4-1-1c0-0.5,0.4-0.9,1-0.9C686.8,434.2,687.2,434.6,687.2,435.2z"/>
	</g>
	<g>
		<path class="st1" d="M681.9,485.7c0,0.6-0.5,1.2-1.2,1.2c-0.6,0-1.2-0.5-1.2-1.2c0-0.6,0.5-1.1,1.2-1.1
			C681.4,484.6,681.9,485.1,681.9,485.7z"/>
	</g>
	<g>
		<path class="st0" d="M798.4,670.5c0,0.8-0.6,1.5-1.5,1.5c-0.8,0-1.5-0.6-1.5-1.5c0-0.8,0.7-1.5,1.5-1.5
			C797.8,669.1,798.4,669.7,798.4,670.5z"/>
	</g>
	<g>
		<path class="st0" d="M731.9,643.6c0,0.8-0.7,1.5-1.5,1.5c-0.9,0-1.5-0.7-1.5-1.5c0-0.8,0.7-1.5,1.5-1.5
			C731.2,642.1,731.9,642.8,731.9,643.6z"/>
	</g>
	<g>
		<path class="st0" d="M680.5,640.9c0,1-0.8,1.8-1.8,1.8c-1,0-1.8-0.8-1.8-1.8c0-1,0.8-1.8,1.8-1.8
			C679.7,639.1,680.5,639.9,680.5,640.9z"/>
	</g>
	<g>
		<path class="st0" d="M605,527.3c0,0.9-0.7,1.5-1.5,1.5c-0.8,0-1.5-0.7-1.5-1.5c0-0.8,0.7-1.5,1.5-1.5
			C604.3,525.7,605,526.4,605,527.3z"/>
	</g>
	<g>
		<ellipse class="st0" cx="586.8" cy="523.7" rx="1.1" ry="1.1"/>
	</g>
	<g>
		<path class="st0" d="M567.2,639.7c0,1.1-0.9,2.1-2.1,2.1c-1.1,0-2.1-0.9-2.1-2.1c0-1.1,0.9-2.1,2.1-2.1
			C566.2,637.6,567.2,638.5,567.2,639.7z"/>
	</g>
	<g>
		<path class="st0" d="M503.8,604.1c0,1-0.8,1.8-1.8,1.8c-1,0-1.8-0.8-1.8-1.8c0-1,0.8-1.8,1.8-1.8
			C503,602.3,503.8,603.1,503.8,604.1z"/>
	</g>
	<g>
		<ellipse class="st0" cx="461.5" cy="662.2" rx="1.7" ry="1.7"/>
	</g>
	<g>
		<path class="st0" d="M423.1,666.8c0,0.8-0.6,1.4-1.4,1.4c-0.8,0-1.4-0.6-1.4-1.4c0-0.8,0.6-1.4,1.4-1.4
			C422.5,665.4,423.1,666,423.1,666.8z"/>
	</g>
	<g>
		<path class="st0" d="M387.3,651.1c0,0.9-0.7,1.6-1.6,1.6c-0.9,0-1.6-0.7-1.6-1.6c0-0.9,0.7-1.6,1.6-1.6
			C386.5,649.5,387.3,650.2,387.3,651.1z"/>
	</g>
	<g>
		<path class="st0" d="M348.9,626.1c0,0.8-0.7,1.4-1.5,1.4c-0.8,0-1.5-0.6-1.5-1.4c0-0.8,0.7-1.5,1.5-1.5
			C348.2,624.7,348.9,625.3,348.9,626.1z"/>
	</g>
	<g>
		<ellipse class="st0" cx="327.3" cy="632" rx="1.4" ry="1.4"/>
	</g>
	<g>
		<path class="st0" d="M328,590.5c0,0.6-0.5,1.1-1,1.1c-0.6,0-1.1-0.5-1.1-1.1c0-0.6,0.5-1,1.1-1C327.5,589.4,328,589.9,328,590.5z"
			/>
	</g>
	<g>
		<ellipse class="st2" cx="363.7" cy="540" rx="1.6" ry="1.6"/>
	</g>
	<g>
		<path class="st2" d="M554.6,579.3c0,0.6-0.5,1-1,1c-0.6,0-1-0.5-1-1c0-0.6,0.5-1,1-1C554.1,578.3,554.6,578.7,554.6,579.3z"/>
	</g>
	<g>
		<path class="st0" d="M470.4,550c0,0.9-0.7,1.6-1.6,1.6c-0.9,0-1.6-0.7-1.6-1.6c0-0.9,0.7-1.6,1.6-1.6
			C469.7,548.3,470.4,549.1,470.4,550z"/>
	</g>
	<g>
		<path class="st2" d="M519.7,604.3c0,0.7-0.6,1.3-1.3,1.3c-0.7,0-1.3-0.6-1.3-1.3c0-0.7,0.6-1.3,1.3-1.3
			C519.1,603,519.7,603.6,519.7,604.3z"/>
	</g>
	<g>
		<path class="st0" d="M542.9,475.7c0,1-0.8,1.9-1.9,1.9c-1,0-1.9-0.9-1.9-1.9c0-1.1,0.9-1.9,1.9-1.9
			C542.1,473.8,542.9,474.7,542.9,475.7z"/>
	</g>
	<g>
		<path class="st0" d="M612.3,661.8c0,0.9-0.7,1.6-1.6,1.6c-0.9,0-1.6-0.7-1.6-1.6s0.7-1.6,1.6-1.6
			C611.6,660.2,612.3,660.9,612.3,661.8z"/>
	</g>
	<g>
		<path class="st0" d="M609,484.3c0,0.7-0.6,1.3-1.3,1.3c-0.7,0-1.3-0.6-1.3-1.3c0-0.7,0.6-1.3,1.3-1.3
			C608.4,482.9,609,483.5,609,484.3z"/>
	</g>
	<g>
		<path class="st0" d="M667.7,623.7c0,0.6-0.5,1.1-1.2,1.1c-0.6,0-1.1-0.5-1.1-1.1c0-0.6,0.5-1.1,1.1-1.1
			C667.2,622.5,667.7,623,667.7,623.7z"/>
	</g>
	<g>
		<path class="st1" d="M680.2,456.9c0,0.6-0.5,1.2-1.2,1.2c-0.6,0-1.2-0.5-1.2-1.2c0-0.6,0.5-1.2,1.2-1.2
			C679.7,455.7,680.2,456.3,680.2,456.9z"/>
	</g>
	<g>
		<path class="st1" d="M721.4,447.1c0,0.7-0.6,1.3-1.3,1.3c-0.7,0-1.3-0.6-1.3-1.3s0.6-1.3,1.3-1.3
			C720.8,445.8,721.4,446.4,721.4,447.1z"/>
	</g>
	<g>
		<path class="st1" d="M782.6,636.9c0,0.7-0.6,1.2-1.2,1.2c-0.7,0-1.3-0.5-1.3-1.2c0-0.7,0.6-1.2,1.3-1.2
			C782,635.6,782.6,636.2,782.6,636.9z"/>
	</g>
	<g>
		<path class="st0" d="M814.2,664.5c0,0.7-0.6,1.4-1.3,1.4c-0.8,0-1.4-0.6-1.4-1.4c0-0.7,0.6-1.4,1.4-1.4
			C813.6,663.1,814.2,663.7,814.2,664.5z"/>
	</g>
	<g>
		<path class="st0" d="M841.7,579.3c0,0.9-0.7,1.6-1.6,1.6c-0.9,0-1.6-0.7-1.6-1.6s0.7-1.6,1.6-1.6
			C841,577.7,841.7,578.4,841.7,579.3z"/>
	</g>
	<g>
		<path class="st0" d="M881.1,643c0,1-0.8,1.9-1.9,1.9c-1,0-1.9-0.9-1.9-1.9c0-1,0.8-1.9,1.9-1.9C880.3,641.1,881.1,642,881.1,643z"
			/>
	</g>
	<g>
		<path class="st2" d="M874.4,438.9c0,0.7-0.6,1.3-1.3,1.3c-0.7,0-1.3-0.6-1.3-1.3c0-0.7,0.6-1.3,1.3-1.3
			C873.9,437.6,874.4,438.2,874.4,438.9z"/>
	</g>
	<g>
		<path class="st3" d="M933.5,562.7c0,0.9-0.7,1.6-1.6,1.6c-0.9,0-1.6-0.7-1.6-1.6c0-0.9,0.7-1.6,1.6-1.6
			C932.8,561.1,933.5,561.8,933.5,562.7z"/>
	</g>
	<g>
		<path class="st3" d="M988.4,638c0,0.9-0.7,1.6-1.6,1.6c-0.9,0-1.6-0.7-1.6-1.6c0-0.9,0.7-1.6,1.6-1.6
			C987.7,636.4,988.4,637.1,988.4,638z"/>
	</g>
	<g>
		<path class="st0" d="M989.7,500.4c0,1-0.8,1.8-1.8,1.8c-1,0-1.8-0.8-1.8-1.8s0.8-1.8,1.8-1.8C988.9,498.6,989.7,499.4,989.7,500.4
			z"/>
	</g>
	<g>
		<path class="st1" d="M961.2,474.9c0,0.8-0.7,1.5-1.5,1.5s-1.5-0.7-1.5-1.5c0-0.8,0.6-1.5,1.5-1.5S961.2,474.1,961.2,474.9z"/>
	</g>
	<g>
		<circle class="st2" cx="928.5" cy="420.1" r="1.1"/>
	</g>
	<g>
		<path class="st0" d="M897.9,403.5c0,0.8-0.6,1.4-1.4,1.4c-0.8,0-1.4-0.6-1.4-1.4c0-0.8,0.6-1.4,1.4-1.4
			C897.3,402.1,897.9,402.7,897.9,403.5z"/>
	</g>
	<g>
		<path class="st0" d="M859.6,515.2c0,0.7-0.5,1.2-1.2,1.2s-1.2-0.6-1.2-1.2c0-0.7,0.5-1.2,1.2-1.2S859.6,514.5,859.6,515.2z"/>
	</g>
	<g>
		<path class="st2" d="M822.2,344.1c0,0.9-0.8,1.7-1.7,1.7c-0.9,0-1.7-0.8-1.7-1.7c0-0.9,0.7-1.7,1.7-1.7
			C821.5,342.5,822.2,343.2,822.2,344.1z"/>
	</g>
	<g>
		<path class="st0" d="M787.2,359.7c0,0.5-0.4,1-0.9,1c-0.5,0-1-0.4-1-1c0-0.5,0.4-1,1-1C786.8,358.8,787.2,359.2,787.2,359.7z"/>
	</g>
	<g>
		<path class="st0" d="M758,374.3c0,0.8-0.6,1.5-1.5,1.5s-1.5-0.7-1.5-1.5c0-0.8,0.6-1.4,1.5-1.4S758,373.5,758,374.3z"/>
	</g>
	<g>
		<path class="st0" d="M711.7,478c0,0.6-0.4,1-1,1c-0.5,0-1-0.4-1-1c0-0.5,0.4-1,1-1C711.3,477,711.7,477.4,711.7,478z"/>
	</g>
	<g>
		<path class="st0" d="M658.4,583.2c0,0.9-0.7,1.6-1.6,1.6c-0.9,0-1.6-0.7-1.6-1.6c0-0.9,0.7-1.6,1.6-1.6
			C657.7,581.6,658.4,582.3,658.4,583.2z"/>
	</g>
	<g>
		<path class="st0" d="M624.6,573c0,0.9-0.8,1.7-1.7,1.7c-0.9,0-1.7-0.7-1.7-1.7c0-0.9,0.8-1.7,1.7-1.7
			C623.8,571.4,624.6,572.1,624.6,573z"/>
	</g>
	<g>
		<circle class="st0" cx="613.5" cy="359.9" r="2"/>
	</g>
	<g>
		<path class="st3" d="M571.4,511.7c0,0.7-0.6,1.4-1.3,1.4c-0.7,0-1.3-0.6-1.3-1.4s0.6-1.4,1.3-1.4
			C570.7,510.4,571.4,511,571.4,511.7z"/>
	</g>
	<g>
		<path class="st3" d="M543.8,496.8c0,0.6-0.5,1.1-1,1.1c-0.6,0-1-0.5-1-1.1c0-0.6,0.5-1,1-1C543.3,495.7,543.8,496.2,543.8,496.8z"
			/>
	</g>
	<g>
		<ellipse class="st0" cx="513.6" cy="423.1" rx="1.5" ry="1.5"/>
	</g>
	<g>
		<path class="st0" d="M501.6,327.2c0,1.1-0.9,2.1-2.1,2.1c-1.1,0-2.1-0.9-2.1-2.1c0-1.1,0.9-2,2.1-2
			C500.7,325.1,501.6,326,501.6,327.2z"/>
	</g>
	<g>
		<path class="st0" d="M407,537.2c0,1-0.8,1.8-1.8,1.8s-1.8-0.8-1.8-1.8c0-1,0.8-1.8,1.8-1.8S407,536.2,407,537.2z"/>
	</g>
	<g>
		<circle class="st0" cx="428.1" cy="307.2" r="1"/>
	</g>
	<g>
		<circle class="st0" cx="413.5" cy="289.2" r="2"/>
	</g>
	<g>
		<path class="st3" d="M318.4,456.4c0,0.8-0.7,1.5-1.5,1.5c-0.8,0-1.5-0.7-1.5-1.5c0-0.8,0.7-1.5,1.5-1.5
			C317.7,454.9,318.4,455.6,318.4,456.4z"/>
	</g>
	<g>
		<path class="st2" d="M334.7,327.6c0,0.9-0.7,1.6-1.6,1.6c-0.9,0-1.6-0.7-1.6-1.6c0-0.9,0.7-1.6,1.6-1.6
			C333.9,326,334.7,326.7,334.7,327.6z"/>
	</g>
	<g>
		<circle class="st0" cx="345.5" cy="289.4" r="1.4"/>
	</g>
	<g>
		<path class="st3" d="M353.5,402.9c0,0.9-0.8,1.7-1.7,1.7c-0.9,0-1.7-0.8-1.7-1.7c0-0.9,0.8-1.7,1.7-1.7
			C352.7,401.2,353.5,402,353.5,402.9z"/>
	</g>
	<g>
		<circle class="st0" cx="264.6" cy="262.4" r="1.6"/>
	</g>
	<g>
		<ellipse class="st0" cx="313.8" cy="383.6" rx="1.2" ry="1.2"/>
	</g>
	<g>
		<path class="st3" d="M350.7,382.1c0,1-0.8,1.8-1.8,1.8c-1,0-1.8-0.8-1.8-1.8c0-1,0.8-1.8,1.8-1.8
			C349.9,380.4,350.7,381.2,350.7,382.1z"/>
	</g>
	<g>
		<path class="st3" d="M384,403c0,0.8-0.6,1.4-1.4,1.4c-0.8,0-1.4-0.6-1.4-1.4s0.6-1.5,1.4-1.5C383.4,401.5,384,402.2,384,403z"/>
	</g>
	<g>
		<circle class="st0" cx="417.1" cy="240.2" r="1.5"/>
	</g>
	<g>
		<path class="st0" d="M447.4,314.2c0,0.6-0.5,1.1-1.1,1.1c-0.6,0-1-0.5-1-1.1c0-0.6,0.5-1,1-1C446.9,313.2,447.4,313.7,447.4,314.2
			z"/>
	</g>
	<g>
		<path class="st0" d="M477.2,387.1c0,1-0.8,1.7-1.7,1.7c-0.9,0-1.7-0.8-1.7-1.7c0-0.9,0.8-1.7,1.7-1.7
			C476.4,385.4,477.2,386.2,477.2,387.1z"/>
	</g>
	<g>
		<circle class="st3" cx="502.2" cy="321.2" r="1.4"/>
	</g>
	<g>
		<path class="st0" d="M544.8,264.6c0,0.9-0.7,1.6-1.6,1.6c-0.9,0-1.6-0.7-1.6-1.6c0-0.9,0.7-1.6,1.6-1.6
			C544,262.9,544.8,263.7,544.8,264.6z"/>
	</g>
	<g>
		<path class="st0" d="M574.4,345.7c0,0.8-0.6,1.4-1.4,1.4c-0.8,0-1.4-0.6-1.4-1.4c0-0.8,0.6-1.4,1.4-1.4
			C573.7,344.3,574.4,344.9,574.4,345.7z"/>
	</g>
	<g>
		<path class="st0" d="M613.1,357.6c0,0.9-0.8,1.7-1.7,1.7c-0.9,0-1.7-0.8-1.7-1.7c0-0.9,0.8-1.7,1.7-1.7
			C612.3,355.9,613.1,356.7,613.1,357.6z"/>
	</g>
	<g>
		<circle class="st0" cx="636.7" cy="224.3" r="1.2"/>
	</g>
	<g>
		<ellipse class="st0" cx="685.1" cy="343.4" rx="2" ry="2"/>
	</g>
	<g>
		<path class="st0" d="M719.9,208.9c0,1.1-0.9,2.1-2.1,2.1c-1.1,0-2.1-0.9-2.1-2.1c0-1.2,0.9-2.1,2.1-2.1
			C719,206.8,719.9,207.7,719.9,208.9z"/>
	</g>
	<g>
		<ellipse class="st0" cx="974.3" cy="166.3" rx="1.7" ry="1.7"/>
	</g>
	<g>
		<path class="st0" d="M797,378.1c0,0.8-0.6,1.4-1.4,1.4c-0.8,0-1.4-0.6-1.4-1.4c0-0.8,0.6-1.4,1.4-1.4
			C796.4,376.7,797,377.3,797,378.1z"/>
	</g>
	<g>
		<path class="st0" d="M824.1,377.3c0,0.8-0.6,1.4-1.4,1.4c-0.8,0-1.4-0.6-1.4-1.4c0-0.8,0.6-1.4,1.4-1.4
			C823.4,375.9,824.1,376.5,824.1,377.3z"/>
	</g>
	<g>
		<path class="st3" d="M856.9,261.3c0,0.9-0.8,1.7-1.7,1.7c-0.9,0-1.7-0.8-1.7-1.7c0-0.9,0.8-1.7,1.7-1.7
			C856.1,259.6,856.9,260.4,856.9,261.3z"/>
	</g>
	<g>
		<path class="st3" d="M888.5,273.8c0,1-0.8,1.8-1.8,1.8c-1,0-1.9-0.8-1.9-1.8c0-1,0.8-1.8,1.9-1.8
			C887.6,271.9,888.5,272.8,888.5,273.8z"/>
	</g>
	<g>
		<path class="st0" d="M927.5,325.6c0,1.1-0.9,2.1-2.1,2.1c-1.1,0-2-0.9-2-2.1c0-1.1,0.9-2,2-2C926.6,323.6,927.5,324.5,927.5,325.6
			z"/>
	</g>
	<g>
		<path class="st0" d="M982,418.2c0,0.7-0.5,1.2-1.2,1.2s-1.2-0.6-1.2-1.2c0-0.7,0.5-1.2,1.2-1.2S982,417.5,982,418.2z"/>
	</g>
	<g>
		<path class="st0" d="M1001.7,291.9c0,0.6-0.5,1-1,1c-0.6,0-1-0.5-1-1c0-0.6,0.4-1,1-1C1001.2,290.9,1001.7,291.4,1001.7,291.9z"/>
	</g>
	<g>
		<path class="st0" d="M1012.9,73.1c0,1.1-0.9,2-2,2c-1.1,0-2-0.9-2-2c0-1.1,0.9-2,2-2C1012,71.1,1012.9,72,1012.9,73.1z"/>
	</g>
	<g>
		<path class="st0" d="M923.8,269.4c0,0.7-0.5,1.2-1.2,1.2c-0.7,0-1.2-0.5-1.2-1.2c0-0.7,0.5-1.2,1.2-1.2
			C923.2,268.2,923.8,268.7,923.8,269.4z"/>
	</g>
	<g>
		<path class="st0" d="M926.1,88.2c0,0.9-0.8,1.7-1.7,1.7c-0.9,0-1.7-0.8-1.7-1.7c0-1,0.8-1.7,1.7-1.7
			C925.3,86.5,926.1,87.2,926.1,88.2z"/>
	</g>
	<g>
		<path class="st0" d="M888.8,22.2c0,1-0.8,1.7-1.7,1.7c-1,0-1.7-0.8-1.7-1.7c0-1,0.8-1.7,1.7-1.7C888,20.5,888.8,21.3,888.8,22.2z"
			/>
	</g>
	<g>
		<path class="st0" d="M835.4,124.6c0,0.9-0.8,1.7-1.7,1.7c-0.9,0-1.7-0.8-1.7-1.7c0-0.9,0.8-1.7,1.7-1.7
			C834.7,122.9,835.4,123.7,835.4,124.6z"/>
	</g>
	<g>
		<circle class="st0" cx="799.8" cy="126.4" r="1.1"/>
	</g>
	<g>
		<path class="st1" d="M762.8,224c0,1.1-0.9,2-2,2c-1.1,0-2-0.9-2-2c0-1.1,0.9-2,2-2C761.9,222,762.8,222.9,762.8,224z"/>
	</g>
	<g>
		<path class="st0" d="M726.2,201.2c0,0.7-0.5,1.2-1.2,1.2c-0.7,0-1.2-0.5-1.2-1.2c0-0.7,0.6-1.2,1.2-1.2
			C725.7,200,726.2,200.5,726.2,201.2z"/>
	</g>
	<g>
		<ellipse class="st0" cx="696.3" cy="201" rx="1.1" ry="1.1"/>
	</g>
	<g>
		<ellipse class="st0" cx="665.9" cy="167.4" rx="1.2" ry="1.2"/>
	</g>
	<g>
		<circle class="st0" cx="627.4" cy="213.3" r="1.5"/>
	</g>
	<g>
		<circle class="st0" cx="588.8" cy="204.3" r="1.9"/>
	</g>
	<g>
		<ellipse class="st0" cx="550.1" cy="111.3" rx="1" ry="1"/>
	</g>
	<g>
		<circle class="st0" cx="512.9" cy="27.8" r="2"/>
	</g>
	<g>
		<ellipse class="st0" cx="467.2" cy="90.2" rx="0.9" ry="0.9"/>
	</g>
	<g>
		<path class="st1" d="M428.9,63.5c0,0.7-0.6,1.3-1.3,1.3c-0.7,0-1.3-0.6-1.3-1.3c0-0.7,0.6-1.3,1.3-1.3
			C428.4,62.2,428.9,62.8,428.9,63.5z"/>
	</g>
	<g>
		<ellipse class="st0" cx="400.8" cy="235.7" rx="1.8" ry="1.8"/>
	</g>
	<g>
		<path class="st3" d="M364.6,65.5c0,1.1-0.9,2-2,2c-1.1,0-2-0.9-2-2c0-1.1,0.9-2,2-2C363.7,63.5,364.6,64.4,364.6,65.5z"/>
	</g>
	<g>
		<circle class="st1" cx="329.3" cy="192" r="2"/>
	</g>
	<g>
		<path class="st0" d="M264.1-36.5c0,0.6-0.5,1.1-1.1,1.1c-0.6,0-1.1-0.5-1.1-1.1c0-0.6,0.5-1.1,1.1-1.1
			C263.6-37.5,264.1-37.1,264.1-36.5z"/>
	</g>
	<g>
		<ellipse class="st1" cx="331.9" cy="216.3" rx="1.8" ry="1.8"/>
	</g>
	<g>
		<ellipse class="st0" cx="264.6" cy="85.1" rx="2" ry="2"/>
	</g>
	<g>
		<circle class="st0" cx="338.1" cy="13.4" r="1.9"/>
	</g>
	<g>
		<circle class="st0" cx="423.5" cy="179" r="1.5"/>
	</g>
	<g>
		<circle class="st3" cx="455.1" cy="131.5" r="1.7"/>
	</g>
	<g>
		<path class="st1" d="M730.6,279.9c0,1.1-0.9,2-2,2s-2-0.9-2-2c0-1.1,0.9-2,2-2S730.6,278.9,730.6,279.9z"/>
	</g>
	<g>
		<circle class="st1" cx="535.8" cy="225" r="1"/>
	</g>
	<g>
		<circle class="st0" cx="556.2" cy="185.4" r="1.8"/>
	</g>
	<g>
		<circle class="st0" cx="591" cy="166.8" r="1.4"/>
	</g>
	<g>
		<path class="st0" d="M615.5,93.2c0,1-0.8,1.9-1.9,1.9c-1,0-1.9-0.8-1.9-1.9c0-1,0.8-1.9,1.9-1.9C614.7,91.3,615.5,92.2,615.5,93.2
			z"/>
	</g>
	<g>
		<path class="st0" d="M682.9,190.3c0,0.8-0.6,1.4-1.4,1.4c-0.8,0-1.4-0.6-1.4-1.4c0-0.8,0.6-1.4,1.4-1.4
			C682.3,188.9,682.9,189.6,682.9,190.3z"/>
	</g>
	<g>
		<ellipse class="st0" cx="685.3" cy="38.1" rx="2" ry="2"/>
	</g>
	<g>
		<path class="st0" d="M718.5,40c0,0.9-0.7,1.6-1.6,1.6c-0.9,0-1.6-0.7-1.6-1.6c0-0.9,0.7-1.6,1.6-1.6
			C717.8,38.4,718.5,39.1,718.5,40z"/>
	</g>
	<g>
		<circle class="st0" cx="757.2" cy="80.3" r="1.4"/>
	</g>
	<g>
		<path class="st0" d="M808.4,144.6c0,1.1-0.9,2-2,2c-1.1,0-2-0.9-2-2c0-1.1,0.9-2,2-2C807.5,142.6,808.4,143.5,808.4,144.6z"/>
	</g>
	<g>
		<path class="st0" d="M898.3,104.1c0,0.8-0.6,1.5-1.5,1.5c-0.8,0-1.5-0.7-1.5-1.5c0-0.8,0.7-1.5,1.5-1.5
			C897.7,102.6,898.3,103.3,898.3,104.1z"/>
	</g>
	<g>
		<path class="st0" d="M765.5,38.5c0,0.9-0.7,1.5-1.5,1.5c-0.8,0-1.5-0.7-1.5-1.5c0-0.8,0.7-1.5,1.5-1.5
			C764.8,36.9,765.5,37.6,765.5,38.5z"/>
	</g>
	<g>
		<circle class="st0" cx="347.5" cy="-9.7" r="1.4"/>
	</g>
</g>
<g>
	<g>
		<ellipse transform="matrix(0.4105 -0.9119 0.9119 0.4105 574.4615 1011.8866)" class="st0" cx="1069.8" cy="61.7" rx="2" ry="2"/>
	</g>
	<g>
		
			<ellipse transform="matrix(0.4105 -0.9119 0.9119 0.4105 542.0143 1028.8027)" class="st1" cx="1066.7" cy="95.2" rx="1.4" ry="1.4"/>
	</g>
	<g>
		
			<ellipse transform="matrix(0.4105 -0.9119 0.9119 0.4105 480.1389 962.9553)" class="st0" cx="984.8" cy="110.1" rx="1.2" ry="1.2"/>
	</g>
	<g>
		
			<ellipse transform="matrix(0.4105 -0.9119 0.9119 0.4105 432.3527 942.0498)" class="st0" cx="944.7" cy="136.7" rx="1.3" ry="1.3"/>
	</g>
	<g>
		
			<ellipse transform="matrix(0.4105 -0.9119 0.9119 0.4105 414.0714 1123.4983)" class="st1" cx="1075.9" cy="241.5" rx="2.1" ry="2.1"/>
	</g>
	<g>
		<path class="st1" d="M930.3,203.9c-0.3,0.6-1,0.8-1.5,0.6c-0.6-0.3-0.9-1-0.6-1.5c0.3-0.6,1-0.8,1.5-0.6
			C930.3,202.7,930.6,203.3,930.3,203.9z"/>
	</g>
	<g>
		
			<ellipse transform="matrix(0.4105 -0.9119 0.9119 0.4105 367.3311 1072.2306)" class="st0" cx="1012.9" cy="252" rx="1.4" ry="1.3"/>
	</g>
	<g>
		
			<ellipse transform="matrix(0.4105 -0.9119 0.9119 0.4105 342.4857 1103.0814)" class="st0" cx="1024.3" cy="286.7" rx="1.3" ry="1.3"/>
	</g>
	<g>
		<ellipse transform="matrix(0.4105 -0.9119 0.9119 0.4105 294.3472 1056.3021)" class="st0" cx="964.1" cy="300.5" rx="2" ry="2"/>
	</g>
	<g>
		<path class="st0" d="M920.6,331.2c-0.4,0.8-1.3,1.2-2.2,0.8c-0.8-0.4-1.2-1.3-0.8-2.2c0.4-0.8,1.3-1.2,2.2-0.8
			C920.6,329.4,921,330.4,920.6,331.2z"/>
	</g>
	<g>
		<ellipse transform="matrix(0.4105 -0.9119 0.9119 0.4105 155.121 936.8541)" class="st0" cx="802.1" cy="348.5" rx="1" ry="1"/>
	</g>
	<g>
		<path class="st0" d="M1012.7,403.5c-0.4,0.9-1.5,1.3-2.4,0.9c-0.9-0.4-1.3-1.5-0.9-2.4c0.4-0.9,1.5-1.3,2.4-0.9
			C1012.7,401.5,1013.1,402.6,1012.7,403.5z"/>
	</g>
	<g>
		<path class="st1" d="M940.9,434.5c-0.4,0.9-1.4,1.3-2.3,0.9c-0.9-0.4-1.3-1.4-0.9-2.3c0.4-0.9,1.4-1.3,2.3-0.9
			C940.9,432.5,941.3,433.6,940.9,434.5z"/>
	</g>
	<g>
		<path class="st2" d="M826.5,469.7c-0.4,0.8-1.3,1.2-2.1,0.8c-0.8-0.4-1.2-1.3-0.8-2.1c0.4-0.8,1.3-1.2,2.1-0.8
			C826.5,467.9,826.9,468.9,826.5,469.7z"/>
	</g>
	<g>
		
			<ellipse transform="matrix(0.4105 -0.9119 0.9119 0.4105 43.8067 1092.1841)" class="st0" cx="866.6" cy="512.2" rx="1.2" ry="1.2"/>
	</g>
	<g>
		<path class="st0" d="M916.1,557.7c-0.4,0.8-1.3,1.1-2.1,0.8c-0.8-0.4-1.1-1.3-0.8-2c0.4-0.8,1.3-1.1,2-0.8
			C916.1,556,916.4,556.9,916.1,557.7z"/>
	</g>
	<g>
		<path class="st0" d="M805.4,598.1c-0.5,1-1.7,1.5-2.8,1.1c-1-0.5-1.5-1.7-1-2.8c0.5-1,1.7-1.5,2.7-1S805.9,597.1,805.4,598.1z"/>
	</g>
	<g>
		
			<ellipse transform="matrix(0.4105 -0.9119 0.9119 0.4105 -20.7027 1202.9979)" class="st0" cx="920" cy="617.5" rx="1.8" ry="1.8"/>
	</g>
	<g>
		<path class="st0" d="M945.4,643.4c-0.4,1-1.6,1.4-2.6,1c-1-0.4-1.4-1.6-1-2.6c0.4-1,1.6-1.4,2.6-1
			C945.4,641.2,945.9,642.4,945.4,643.4z"/>
	</g>
	<g>
		<path class="st0" d="M884.4,599.5c-0.2,0.5-0.8,0.7-1.3,0.5c-0.5-0.2-0.7-0.8-0.5-1.3c0.2-0.5,0.8-0.8,1.3-0.5
			C884.4,598.3,884.7,599,884.4,599.5z"/>
	</g>
	<g>
		<path class="st0" d="M1220.9,608.5c-0.2,0.5-0.9,0.8-1.4,0.6c-0.6-0.2-0.8-0.9-0.5-1.4c0.2-0.5,0.9-0.8,1.4-0.6
			C1221,607.4,1221.2,608,1220.9,608.5z"/>
	</g>
	<g>
		<path class="st3" d="M1059.3,722.9c-0.4,1-1.6,1.4-2.6,1c-1-0.4-1.4-1.6-1-2.6c0.4-1,1.6-1.4,2.6-1
			C1059.3,720.8,1059.8,721.9,1059.3,722.9z"/>
	</g>
	<g>
		<path class="st0" d="M1152.1,705.4c-0.2,0.5-0.9,0.8-1.4,0.5c-0.5-0.2-0.8-0.9-0.5-1.4c0.2-0.5,0.9-0.8,1.4-0.5
			C1152.1,704.3,1152.3,704.9,1152.1,705.4z"/>
	</g>
	<g>
		<path class="st2" d="M959.2,617.7c-0.4,0.9-1.5,1.3-2.4,0.9s-1.3-1.5-0.9-2.4c0.4-0.9,1.5-1.3,2.4-0.9
			C959.2,615.8,959.6,616.8,959.2,617.7z"/>
	</g>
	<g>
		
			<ellipse transform="matrix(0.4105 -0.9119 0.9119 0.4105 33.2787 1200.4546)" class="st0" cx="945" cy="574.5" rx="1.6" ry="1.7"/>
	</g>
	<g>
		<path class="st3" d="M1028.4,550.6c-0.4,1-1.6,1.4-2.6,1c-1-0.4-1.4-1.6-1-2.6c0.4-1,1.6-1.4,2.6-1
			C1028.4,548.4,1028.8,549.6,1028.4,550.6z"/>
	</g>
	<g>
		<path class="st0" d="M1069.3,532.7c-0.3,0.7-1.2,1.1-2,0.7c-0.7-0.3-1.1-1.2-0.7-2c0.3-0.7,1.2-1.1,2-0.7
			C1069.3,531.1,1069.6,532,1069.3,532.7z"/>
	</g>
	<g>
		<path class="st0" d="M1030.4,485.4c-0.4,0.9-1.4,1.3-2.3,0.9c-0.9-0.4-1.3-1.4-0.9-2.3c0.4-0.9,1.4-1.3,2.3-0.9
			C1030.4,483.5,1030.8,484.5,1030.4,485.4z"/>
	</g>
	<g>
		<path class="st1" d="M970,422.2c-0.3,0.7-1.2,1-1.9,0.7c-0.7-0.3-1-1.2-0.7-1.9c0.3-0.7,1.2-1,1.9-0.7
			C970,420.6,970.3,421.5,970,422.2z"/>
	</g>
	<g>
		<path class="st3" d="M1210.7,461c-0.5,1-1.6,1.5-2.7,1c-1-0.4-1.5-1.6-1-2.6c0.5-1,1.7-1.5,2.6-1
			C1210.7,458.8,1211.2,460,1210.7,461z"/>
	</g>
	<g>
		<path class="st0" d="M1088.9,391.3c-0.2,0.5-0.8,0.7-1.3,0.5c-0.5-0.2-0.7-0.8-0.5-1.2c0.2-0.5,0.8-0.7,1.3-0.5
			C1089,390.2,1089.2,390.8,1088.9,391.3z"/>
	</g>
	<g>
		
			<ellipse transform="matrix(0.4105 -0.9119 0.9119 0.4105 333.7159 1261.4723)" class="st0" cx="1142.5" cy="372.6" rx="1" ry="1"/>
	</g>
	<g>
		<path class="st0" d="M1118.9,333.4c-0.5,1-1.6,1.5-2.7,1c-1-0.5-1.5-1.6-1-2.7c0.5-1,1.6-1.5,2.7-1
			C1118.9,331.2,1119.4,332.4,1118.9,333.4z"/>
	</g>
	<g>
		
			<ellipse transform="matrix(0.4105 -0.9119 0.9119 0.4105 392.9298 1163.14)" class="st0" cx="1096" cy="277.7" rx="1.8" ry="1.8"/>
	</g>
	<g>
		<path class="st0" d="M1228.9,289.5c-0.3,0.6-0.9,0.8-1.5,0.6c-0.5-0.2-0.8-0.9-0.5-1.5c0.3-0.6,0.9-0.8,1.4-0.6
			C1228.9,288.2,1229.1,288.9,1228.9,289.5z"/>
	</g>
	<g>
		
			<ellipse transform="matrix(0.4105 -0.9119 0.9119 0.4105 475.0784 1199.7375)" class="st0" cx="1165.4" cy="232.5" rx="1.5" ry="1.5"/>
	</g>
	<g>
		
			<ellipse transform="matrix(0.4105 -0.9119 0.9119 0.4105 518.9572 1162.6899)" class="st0" cx="1158.7" cy="180" rx="1.6" ry="1.6"/>
	</g>
	<g>
		
			<ellipse transform="matrix(0.4105 -0.9119 0.9119 0.4105 564.5953 1131.3115)" class="st0" cx="1157.2" cy="129" rx="1.9" ry="1.9"/>
	</g>
	<g>
		<path class="st2" d="M1279.3,166.3c-0.4,0.9-1.5,1.3-2.4,0.9c-0.9-0.4-1.3-1.5-0.9-2.4c0.4-0.9,1.5-1.3,2.4-0.9
			C1279.3,164.3,1279.7,165.4,1279.3,166.3z"/>
	</g>
	<g>
		
			<ellipse transform="matrix(0.4105 -0.9119 0.9119 0.4105 630.5137 1269.5259)" class="st0" cx="1297.1" cy="147.1" rx="1.6" ry="1.6"/>
	</g>
	<g>
		
			<ellipse transform="matrix(0.4105 -0.9119 0.9119 0.4105 652.5121 1189.5675)" class="st3" cx="1246.2" cy="90.1" rx="1.5" ry="1.5"/>
	</g>
	<g>
		
			<ellipse transform="matrix(0.4105 -0.9119 0.9119 0.4105 658.8793 1323.8436)" class="st0" cx="1353.3" cy="152.4" rx="1.2" ry="1.3"/>
	</g>
	<g>
		<ellipse transform="matrix(0.4105 -0.9119 0.9119 0.4105 710.2577 1202.6403)" class="st3" cx="1285.2" cy="52" rx="2" ry="2"/>
	</g>
	<g>
		<path class="st0" d="M1338.9,84.9c-0.4,0.9-1.5,1.4-2.5,0.9c-0.9-0.4-1.4-1.5-0.9-2.5c0.4-0.9,1.6-1.4,2.5-0.9
			C1338.9,82.9,1339.3,84,1338.9,84.9z"/>
	</g>
	<g>
		<path class="st0" d="M1380.3,63.7c-0.5,1.1-1.7,1.5-2.8,1c-1-0.5-1.5-1.7-1-2.8c0.5-1,1.7-1.5,2.8-1
			C1380.3,61.4,1380.7,62.7,1380.3,63.7z"/>
	</g>
	<g>
		<path class="st0" d="M1395,101.1c-0.3,0.6-0.9,0.8-1.5,0.6c-0.6-0.3-0.8-0.9-0.6-1.5c0.3-0.6,0.9-0.8,1.5-0.6
			C1395,99.9,1395.2,100.5,1395,101.1z"/>
	</g>
	<g>
		
			<ellipse transform="matrix(0.4105 -0.9119 0.9119 0.4105 603.2014 1240.1888)" class="st2" cx="1260.7" cy="153.6" rx="1.7" ry="1.7"/>
	</g>
	<g>
		
			<ellipse transform="matrix(0.4105 -0.9119 0.9119 0.4105 554.7584 1341.0565)" class="st0" cx="1314.5" cy="241.5" rx="1.9" ry="1.9"/>
	</g>
	<g>
		<path class="st0" d="M1496,202.1c-0.4,0.8-1.4,1.2-2.2,0.8c-0.8-0.4-1.2-1.4-0.8-2.2c0.4-0.8,1.4-1.2,2.2-0.8
			C1496,200.3,1496.3,201.3,1496,202.1z"/>
	</g>
	<g>
		
			<ellipse transform="matrix(0.4105 -0.9119 0.9119 0.4105 672.7917 1509.3369)" class="st0" cx="1503.7" cy="234.3" rx="1.4" ry="1.4"/>
	</g>
	<g>
		<path class="st3" d="M1470.6,277.4c-0.5,1-1.6,1.5-2.7,1c-1-0.5-1.5-1.7-1-2.7c0.5-1,1.7-1.5,2.7-1
			C1470.6,275.2,1471,276.4,1470.6,277.4z"/>
	</g>
	<g>
		
			<ellipse transform="matrix(0.4105 -0.9119 0.9119 0.4105 478.0858 1332.3169)" class="st0" cx="1269.4" cy="296.4" rx="1.2" ry="1.2"/>
	</g>
	<g>
		
			<ellipse transform="matrix(0.4105 -0.9119 0.9119 0.4105 552.1221 1560.192)" class="st0" cx="1482.7" cy="353.1" rx="1.9" ry="1.9"/>
	</g>
	<g>
		<path class="st1" d="M1305.3,357.9c-0.3,0.6-1,0.8-1.5,0.6c-0.6-0.3-0.8-1-0.6-1.5c0.3-0.6,1-0.9,1.5-0.6
			C1305.3,356.6,1305.6,357.3,1305.3,357.9z"/>
	</g>
	<g>
		<path class="st0" d="M1446.6,425.7c-0.5,1-1.7,1.5-2.8,1c-1-0.5-1.5-1.7-1-2.7c0.5-1.1,1.7-1.5,2.7-1
			C1446.6,423.4,1447.1,424.6,1446.6,425.7z"/>
	</g>
	<g>
		<path class="st0" d="M1445.3,474.5c-0.4,0.9-1.5,1.3-2.4,0.9c-0.9-0.4-1.3-1.5-0.9-2.4c0.4-0.9,1.5-1.3,2.4-0.9
			C1445.3,472.5,1445.7,473.6,1445.3,474.5z"/>
	</g>
	<g>
		
			<ellipse transform="matrix(0.4105 -0.9119 0.9119 0.4105 332.414 1367.6523)" class="st0" cx="1223.9" cy="426.7" rx="1.6" ry="1.6"/>
	</g>
	<g>
		<path class="st0" d="M1357.5,516.7c-0.4,0.9-1.5,1.3-2.3,0.9c-0.9-0.4-1.3-1.5-0.9-2.4c0.4-0.9,1.4-1.3,2.3-0.9
			C1357.5,514.7,1357.9,515.8,1357.5,516.7z"/>
	</g>
	<g>
		<path class="st0" d="M1364.5,562.6c-0.3,0.6-1,0.9-1.6,0.6c-0.6-0.3-0.9-1-0.6-1.6s1-0.9,1.7-0.6
			C1364.5,561.2,1364.8,561.9,1364.5,562.6z"/>
	</g>
	<g>
		<path class="st2" d="M1393.9,627.1c-0.3,0.6-1,0.9-1.6,0.6c-0.6-0.3-0.9-1-0.6-1.7c0.3-0.6,1-0.9,1.7-0.6
			C1393.9,625.7,1394.2,626.5,1393.9,627.1z"/>
	</g>
	<g>
		<path class="st0" d="M1350.3,679.1c-0.4,1-1.6,1.4-2.6,1c-1-0.4-1.4-1.6-1-2.6c0.4-1,1.6-1.4,2.6-1
			C1350.3,677,1350.8,678.1,1350.3,679.1z"/>
	</g>
	<g>
		<path class="st0" d="M1305.5,675c-0.3,0.7-1.1,1-1.8,0.7c-0.7-0.3-1-1.1-0.7-1.8c0.3-0.7,1.1-1,1.8-0.7
			C1305.5,673.5,1305.9,674.3,1305.5,675z"/>
	</g>
	<g>
		<path class="st1" d="M1171.2,529.4c-0.2,0.5-0.8,0.7-1.3,0.5c-0.5-0.2-0.7-0.8-0.5-1.3c0.2-0.5,0.8-0.7,1.3-0.5
			C1171.2,528.4,1171.4,529,1171.2,529.4z"/>
	</g>
	<g>
		<path class="st1" d="M1145.7,573.4c-0.3,0.6-1,0.9-1.5,0.6c-0.6-0.3-0.9-1-0.6-1.6c0.3-0.6,1-0.8,1.5-0.6
			C1145.7,572.1,1145.9,572.8,1145.7,573.4z"/>
	</g>
	<g>
		<path class="st0" d="M1176,789.7c-0.3,0.7-1.2,1.1-1.9,0.7c-0.7-0.3-1.1-1.2-0.7-1.9c0.3-0.7,1.2-1.1,1.9-0.7
			C1176,788.1,1176.4,789,1176,789.7z"/>
	</g>
	<g>
		<path class="st0" d="M1126.4,737.9c-0.3,0.8-1.3,1.1-2,0.8c-0.8-0.4-1.1-1.3-0.8-2c0.3-0.8,1.3-1.1,2-0.8
			C1126.4,736.2,1126.8,737.1,1126.4,737.9z"/>
	</g>
	<g>
		<path class="st0" d="M1080.7,714.3c-0.4,0.9-1.5,1.3-2.4,0.9c-0.9-0.4-1.3-1.5-0.9-2.4c0.4-0.9,1.5-1.3,2.4-0.9
			C1080.7,712.3,1081.1,713.4,1080.7,714.3z"/>
	</g>
	<g>
		<path class="st0" d="M1058.5,579.7c-0.4,0.8-1.3,1.1-2,0.8c-0.8-0.3-1.1-1.3-0.8-2c0.3-0.8,1.3-1.1,2-0.8
			C1058.5,578,1058.8,578.9,1058.5,579.7z"/>
	</g>
	<g>
		
			<ellipse transform="matrix(0.4105 -0.9119 0.9119 0.4105 96.241 1286.8134)" class="st0" cx="1043.3" cy="569" rx="1.1" ry="1.1"/>
	</g>
	<g>
		<path class="st0" d="M977.8,666.6c-0.5,1-1.7,1.5-2.7,1c-1-0.5-1.5-1.7-1-2.7c0.5-1,1.7-1.5,2.8-1
			C977.8,664.4,978.3,665.6,977.8,666.6z"/>
	</g>
	<g>
		<path class="st0" d="M934.6,608.2c-0.4,0.9-1.5,1.3-2.4,0.9c-0.9-0.4-1.3-1.5-0.9-2.4c0.4-0.9,1.5-1.3,2.4-0.9
			C934.6,606.2,935,607.3,934.6,608.2z"/>
	</g>
	<g>
		
			<ellipse transform="matrix(0.4105 -0.9119 0.9119 0.4105 -72.8384 1174.9523)" class="st0" cx="872.3" cy="643.8" rx="1.7" ry="1.7"/>
	</g>
	<g>
		<path class="st0" d="M835.3,632.2c-0.3,0.7-1.1,1-1.8,0.7c-0.7-0.3-1-1.2-0.7-1.8c0.3-0.7,1.1-1,1.8-0.7
			C835.4,630.7,835.7,631.5,835.3,632.2z"/>
	</g>
	<g>
		<path class="st0" d="M809.1,603.2c-0.4,0.8-1.3,1.2-2.1,0.8c-0.8-0.4-1.2-1.3-0.8-2.1c0.4-0.8,1.3-1.2,2.1-0.8
			C809.1,601.5,809.5,602.4,809.1,603.2z"/>
	</g>
	<g>
		<path class="st0" d="M784.3,564.7c-0.3,0.7-1.2,1-1.9,0.7c-0.7-0.3-1.1-1.2-0.7-1.9c0.3-0.7,1.2-1.1,1.9-0.7
			C784.4,563.1,784.7,564,784.3,564.7z"/>
	</g>
	<g>
		
			<ellipse transform="matrix(0.4105 -0.9119 0.9119 0.4105 -62.3693 1025.915)" class="st0" cx="762.2" cy="561.2" rx="1.4" ry="1.4"/>
	</g>
	<g>
		<path class="st0" d="M779.9,523.6c-0.2,0.5-0.9,0.8-1.4,0.5c-0.5-0.2-0.8-0.9-0.5-1.4c0.2-0.5,0.9-0.7,1.4-0.5
			C779.9,522.5,780.2,523.1,779.9,523.6z"/>
	</g>
	<g>
		
			<ellipse transform="matrix(0.4105 -0.9119 0.9119 0.4105 42.3753 1049.9333)" class="st2" cx="833.2" cy="492.2" rx="1.6" ry="1.6"/>
	</g>
	<g>
		<path class="st2" d="M991.1,606.4c-0.2,0.5-0.8,0.7-1.3,0.5c-0.5-0.2-0.7-0.8-0.5-1.3c0.2-0.5,0.8-0.8,1.4-0.5
			C991.1,605.3,991.4,605.9,991.1,606.4z"/>
	</g>
	<g>
		<path class="st0" d="M926.4,545.1c-0.4,0.8-1.3,1.2-2.2,0.8c-0.8-0.4-1.2-1.3-0.8-2.2c0.4-0.8,1.3-1.2,2.2-0.8
			C926.4,543.3,926.8,544.3,926.4,545.1z"/>
	</g>
	<g>
		<path class="st2" d="M949,614.9c-0.3,0.7-1.1,1-1.8,0.7c-0.7-0.3-1-1.1-0.7-1.8c0.3-0.7,1.1-1,1.8-0.7
			C949,613.5,949.3,614.3,949,614.9z"/>
	</g>
	<g>
		<path class="st0" d="M1023,507.2c-0.4,1-1.6,1.4-2.5,1c-1-0.4-1.4-1.6-1-2.5c0.4-1,1.6-1.4,2.5-1
			C1023,505.1,1023.4,506.2,1023,507.2z"/>
	</g>
	<g>
		<path class="st0" d="M1009.9,705.3c-0.4,0.8-1.3,1.2-2.1,0.8c-0.8-0.4-1.2-1.3-0.8-2.1s1.3-1.2,2.1-0.8
			C1009.9,703.6,1010.3,704.5,1009.9,705.3z"/>
	</g>
	<g>
		<path class="st0" d="M1079.8,542.1c-0.3,0.7-1.1,1-1.8,0.7c-0.7-0.3-1-1.1-0.7-1.8c0.3-0.7,1.1-1,1.8-0.7
			C1079.8,540.7,1080.1,541.5,1079.8,542.1z"/>
	</g>
	<g>
		<path class="st0" d="M1076.1,693.4c-0.3,0.6-1,0.8-1.5,0.6c-0.6-0.3-0.8-0.9-0.6-1.5c0.3-0.6,0.9-0.8,1.5-0.6
			C1076.1,692.1,1076.3,692.8,1076.1,693.4z"/>
	</g>
	<g>
		<path class="st1" d="M1155.9,546.4c-0.3,0.6-1,0.8-1.5,0.6c-0.6-0.3-0.8-1-0.6-1.5c0.3-0.6,1-0.8,1.5-0.6
			C1155.9,545.1,1156.2,545.8,1155.9,546.4z"/>
	</g>
	<g>
		<path class="st1" d="M1197.5,554.4c-0.3,0.7-1.1,1-1.8,0.7c-0.7-0.3-1-1.1-0.7-1.7s1.1-1,1.7-0.7
			C1197.5,552.9,1197.8,553.7,1197.5,554.4z"/>
	</g>
	<g>
		<path class="st1" d="M1175.4,752.5c-0.3,0.6-1,0.9-1.6,0.6c-0.6-0.3-0.9-1-0.6-1.6c0.3-0.6,1-0.9,1.6-0.6
			C1175.4,751.2,1175.7,751.9,1175.4,752.5z"/>
	</g>
	<g>
		<path class="st0" d="M1192.9,790.7c-0.3,0.7-1.1,1-1.8,0.7c-0.7-0.3-1-1.1-0.7-1.8c0.3-0.7,1.1-1,1.8-0.7
			C1192.9,789.2,1193.2,790,1192.9,790.7z"/>
	</g>
	<g>
		<path class="st0" d="M1253,724.3c-0.4,0.8-1.3,1.2-2.1,0.8c-0.8-0.4-1.2-1.3-0.8-2.1c0.4-0.8,1.3-1.2,2.1-0.8
			C1253,722.5,1253.4,723.5,1253,724.3z"/>
	</g>
	<g>
		<path class="st0" d="M1262.7,798.6c-0.4,0.9-1.5,1.4-2.5,1c-1-0.4-1.4-1.6-0.9-2.5c0.4-0.9,1.5-1.4,2.5-0.9
			C1262.7,796.5,1263.1,797.6,1262.7,798.6z"/>
	</g>
	<g>
		<path class="st2" d="M1340.4,609.7c-0.3,0.7-1.1,0.9-1.7,0.6c-0.7-0.3-0.9-1.1-0.7-1.7c0.3-0.7,1.1-1,1.7-0.7
			C1340.4,608.3,1340.7,609,1340.4,609.7z"/>
	</g>
	<g>
		<path class="st3" d="M1343.5,746.8c-0.4,0.8-1.3,1.2-2.1,0.8c-0.8-0.4-1.2-1.3-0.8-2.1s1.3-1.2,2.1-0.8
			C1343.5,745.1,1343.9,746,1343.5,746.8z"/>
	</g>
	<g>
		<path class="st3" d="M1362.6,838c-0.4,0.8-1.3,1.2-2.1,0.8c-0.8-0.4-1.2-1.3-0.8-2.1c0.4-0.8,1.3-1.2,2.1-0.8
			C1362.6,836.3,1363,837.2,1362.6,838z"/>
	</g>
	<g>
		<path class="st0" d="M1420.3,713.1c-0.4,0.9-1.5,1.3-2.4,0.9c-0.9-0.4-1.3-1.5-0.9-2.4c0.4-0.9,1.5-1.3,2.4-0.9
			C1420.3,711.1,1420.7,712.2,1420.3,713.1z"/>
	</g>
	<g>
		<path class="st1" d="M1404.8,678.2c-0.3,0.7-1.2,1.1-2,0.7c-0.8-0.3-1.1-1.2-0.7-2c0.3-0.7,1.2-1.1,2-0.8
			C1404.8,676.5,1405.1,677.4,1404.8,678.2z"/>
	</g>
	<g>
		
			<ellipse transform="matrix(0.4105 -0.9119 0.9119 0.4105 263.3052 1636.7665)" class="st2" cx="1397.5" cy="614.7" rx="1.1" ry="1.1"/>
	</g>
	<g>
		<path class="st0" d="M1376.4,587c-0.3,0.7-1.2,1-1.9,0.7c-0.7-0.3-1-1.1-0.7-1.9c0.3-0.7,1.2-1,1.9-0.7
			C1376.4,585.5,1376.7,586.3,1376.4,587z"/>
	</g>
	<g>
		<path class="st0" d="M1295.6,673.2c-0.3,0.6-1,0.9-1.6,0.6c-0.6-0.3-0.9-1-0.6-1.6c0.3-0.6,1-0.9,1.6-0.6
			S1295.9,672.6,1295.6,673.2z"/>
	</g>
	<g>
		<path class="st2" d="M1331.7,501.9c-0.4,0.8-1.4,1.2-2.2,0.8c-0.9-0.4-1.2-1.4-0.8-2.2c0.4-0.8,1.4-1.2,2.2-0.8
			C1331.7,500,1332.1,501,1331.7,501.9z"/>
	</g>
	<g>
		<path class="st0" d="M1293.4,501.7c-0.2,0.5-0.8,0.7-1.3,0.5c-0.5-0.2-0.7-0.8-0.5-1.3c0.2-0.5,0.8-0.7,1.3-0.5
			C1293.4,500.7,1293.6,501.2,1293.4,501.7z"/>
	</g>
	<g>
		<path class="st0" d="M1260.8,503c-0.3,0.7-1.2,1.1-1.9,0.7s-1.1-1.2-0.7-1.9c0.3-0.7,1.2-1.1,1.9-0.7S1261.1,502.2,1260.8,503z"/>
	</g>
	<g>
		<path class="st0" d="M1176,578.5c-0.2,0.5-0.8,0.7-1.3,0.5c-0.5-0.2-0.7-0.8-0.5-1.3c0.2-0.5,0.8-0.7,1.3-0.5
			C1176,577.5,1176.3,578,1176,578.5z"/>
	</g>
	<g>
		<path class="st0" d="M1084.2,652.6c-0.4,0.8-1.3,1.2-2.1,0.8c-0.8-0.4-1.1-1.3-0.8-2.1c0.4-0.8,1.3-1.1,2.1-0.8
			C1084.2,650.9,1084.5,651.8,1084.2,652.6z"/>
	</g>
	<g>
		<path class="st0" d="M1057.5,629.5c-0.4,0.9-1.4,1.2-2.2,0.8c-0.8-0.4-1.2-1.4-0.8-2.2c0.4-0.8,1.4-1.2,2.2-0.8
			C1057.6,627.6,1057.9,628.6,1057.5,629.5z"/>
	</g>
	<g>
		
			<ellipse transform="matrix(0.4105 -0.9119 0.9119 0.4105 276.4608 1288.6868)" class="st0" cx="1134.9" cy="430.5" rx="2" ry="2"/>
	</g>
	<g>
		<path class="st3" d="M1034.2,551.7c-0.3,0.7-1.1,1-1.8,0.7c-0.7-0.3-1-1.1-0.7-1.8s1.1-1,1.8-0.7
			C1034.2,550.2,1034.5,551,1034.2,551.7z"/>
	</g>
	<g>
		<path class="st3" d="M1015.2,526.7c-0.2,0.5-0.9,0.8-1.4,0.5c-0.5-0.2-0.8-0.9-0.5-1.4c0.2-0.5,0.9-0.7,1.4-0.5
			C1015.2,525.6,1015.4,526.2,1015.2,526.7z"/>
	</g>
	<g>
		
			<ellipse transform="matrix(0.4105 -0.9119 0.9119 0.4105 192.2676 1191.7767)" class="st0" cx="1017.8" cy="447.2" rx="1.5" ry="1.5"/>
	</g>
	<g>
		<path class="st0" d="M1046.3,354.8c-0.5,1-1.7,1.5-2.7,1c-1-0.5-1.5-1.7-1-2.7c0.5-1,1.7-1.5,2.7-1
			C1046.3,352.6,1046.8,353.8,1046.3,354.8z"/>
	</g>
	<g>
		<path class="st0" d="M873.8,507.5c-0.4,0.9-1.5,1.3-2.4,0.9c-0.9-0.4-1.3-1.5-0.9-2.4c0.4-0.9,1.5-1.3,2.4-0.9
			C873.9,505.5,874.3,506.6,873.8,507.5z"/>
	</g>
	<g>
		<ellipse transform="matrix(0.4105 -0.9119 0.9119 0.4105 302.7345 1081.1515)" class="st0" cx="987.5" cy="306.4" rx="1" ry="1"/>
	</g>
	<g>
		<ellipse transform="matrix(0.4105 -0.9119 0.9119 0.4105 319.743 1062.4545)" class="st0" cx="981.6" cy="283.9" rx="2" ry="2"/>
	</g>
	<g>
		<path class="st3" d="M826.2,397.4c-0.3,0.8-1.2,1.1-2,0.7c-0.8-0.3-1.1-1.2-0.8-2c0.3-0.8,1.2-1.1,2-0.8
			C826.2,395.8,826.5,396.7,826.2,397.4z"/>
	</g>
	<g>
		<path class="st2" d="M893.9,286.6c-0.4,0.8-1.3,1.2-2.1,0.8c-0.8-0.4-1.2-1.3-0.8-2.1c0.4-0.8,1.3-1.2,2.1-0.8
			C893.9,284.9,894.3,285.8,893.9,286.6z"/>
	</g>
	<g>
		
			<ellipse transform="matrix(0.4105 -0.9119 0.9119 0.4105 308.3559 989.5054)" class="st0" cx="919.4" cy="256.3" rx="1.4" ry="1.4"/>
	</g>
	<g>
		<path class="st3" d="M880.2,363.1c-0.4,0.8-1.4,1.2-2.2,0.8c-0.9-0.4-1.2-1.4-0.9-2.2c0.4-0.9,1.4-1.2,2.3-0.9
			C880.2,361.2,880.6,362.2,880.2,363.1z"/>
	</g>
	<g>
		
			<ellipse transform="matrix(0.4105 -0.9119 0.9119 0.4105 324.1725 898.2974)" class="st0" cx="856.8" cy="198.4" rx="1.6" ry="1.6"/>
	</g>
	<g>
		
			<ellipse transform="matrix(0.4105 -0.9119 0.9119 0.4105 202.0477 970.8274)" class="st0" cx="851.8" cy="329.2" rx="1.2" ry="1.2"/>
	</g>
	<g>
		<path class="st3" d="M886.2,343c-0.4,0.9-1.4,1.3-2.3,0.9c-0.9-0.4-1.3-1.4-0.9-2.3c0.4-0.9,1.4-1.3,2.3-0.9
			C886.2,341,886.6,342.1,886.2,343z"/>
	</g>
	<g>
		<path class="st3" d="M908,375.7c-0.3,0.7-1.2,1-1.9,0.7c-0.7-0.3-1-1.2-0.7-1.9c0.3-0.7,1.2-1.1,1.9-0.7
			C908,374.1,908.3,374.9,908,375.7z"/>
	</g>
	<g>
		
			<ellipse transform="matrix(0.4105 -0.9119 0.9119 0.4105 372.9241 1058.3174)" class="st0" cx="1004.9" cy="240.7" rx="1.5" ry="1.5"/>
	</g>
	<g>
		<path class="st0" d="M1002.2,320.7c-0.2,0.5-0.9,0.8-1.4,0.5c-0.5-0.2-0.8-0.9-0.5-1.4c0.2-0.5,0.9-0.8,1.4-0.5
			C1002.2,319.6,1002.4,320.2,1002.2,320.7z"/>
	</g>
	<g>
		<path class="st0" d="M999.4,399.4c-0.4,0.9-1.4,1.3-2.3,0.9c-0.9-0.4-1.3-1.4-0.9-2.3c0.4-0.9,1.4-1.2,2.3-0.9
			C999.4,397.5,999.8,398.6,999.4,399.4z"/>
	</g>
	<g>
		
			<ellipse transform="matrix(0.4105 -0.9119 0.9119 0.4105 299.8088 1162.9312)" class="st3" cx="1049.3" cy="349.6" rx="1.4" ry="1.4"/>
	</g>
	<g>
		<path class="st0" d="M1111.4,315.4c-0.4,0.8-1.3,1.2-2.2,0.8c-0.8-0.4-1.2-1.3-0.8-2.2c0.4-0.8,1.3-1.2,2.2-0.8
			C1111.4,313.6,1111.7,314.6,1111.4,315.4z"/>
	</g>
	<g>
		<path class="st0" d="M1105.1,401.5c-0.3,0.7-1.1,1-1.8,0.7c-0.7-0.3-1-1.1-0.7-1.8c0.3-0.7,1.1-1,1.8-0.7
			C1105.1,400,1105.4,400.8,1105.1,401.5z"/>
	</g>
	<g>
		<path class="st0" d="M1135.5,428.3c-0.4,0.8-1.4,1.2-2.2,0.8c-0.9-0.4-1.2-1.4-0.8-2.2c0.4-0.9,1.4-1.2,2.2-0.9
			C1135.5,426.5,1135.9,427.5,1135.5,428.3z"/>
	</g>
	<g>
		
			<ellipse transform="matrix(0.4105 -0.9119 0.9119 0.4105 425.8394 1291.4417)" class="st0" cx="1211.7" cy="316.4" rx="1.2" ry="1.2"/>
	</g>
	<g>
		<ellipse transform="matrix(0.4105 -0.9119 0.9119 0.4105 305.8268 1362.9149)" class="st0" cx="1207" cy="444.9" rx="2" ry="2"/>
	</g>
	<g>
		<path class="st0" d="M1293.9,336.5c-0.5,1-1.7,1.5-2.8,1c-1-0.5-1.5-1.7-1-2.8c0.5-1.1,1.7-1.5,2.8-1
			C1293.9,334.2,1294.4,335.5,1293.9,336.5z"/>
	</g>
	<g>
		
			<ellipse transform="matrix(0.4105 -0.9119 0.9119 0.4105 543.2682 1644.4689)" class="st0" cx="1543.4" cy="402.1" rx="1.7" ry="1.7"/>
	</g>
	<g>
		<path class="st0" d="M1294.8,522.5c-0.3,0.7-1.1,1-1.8,0.7c-0.7-0.3-1-1.1-0.7-1.8c0.3-0.7,1.1-1,1.8-0.7
			C1294.8,520.9,1295.1,521.8,1294.8,522.5z"/>
	</g>
	<g>
		<path class="st0" d="M1319.8,532.8c-0.3,0.7-1.2,1.1-1.9,0.7c-0.7-0.3-1-1.2-0.7-1.9c0.3-0.7,1.2-1,1.9-0.7
			C1319.8,531.3,1320.1,532.1,1319.8,532.8z"/>
	</g>
	<g>
		
			<ellipse transform="matrix(0.4105 -0.9119 0.9119 0.4105 421.7569 1532.0884)" class="st3" cx="1395.8" cy="439.9" rx="1.7" ry="1.7"/>
	</g>
	<g>
		<path class="st3" d="M1421,464.9c-0.4,0.9-1.5,1.3-2.4,0.9c-0.9-0.4-1.4-1.5-0.9-2.4c0.4-0.9,1.5-1.3,2.4-0.9
			C1421,462.9,1421.4,464,1421,464.9z"/>
	</g>
	<g>
		<path class="st0" d="M1435.3,528.2c-0.5,1-1.7,1.5-2.7,1c-1-0.5-1.5-1.7-1-2.7c0.5-1,1.7-1.5,2.7-1
			C1435.3,525.9,1435.8,527.1,1435.3,528.2z"/>
	</g>
	<g>
		<path class="st0" d="M1447,635c-0.3,0.6-1,0.9-1.6,0.6c-0.6-0.3-0.9-1-0.6-1.6c0.3-0.6,1-0.9,1.6-0.6
			C1447,633.6,1447.3,634.3,1447,635z"/>
	</g>
	<g>
		<path class="st0" d="M1516.8,527.9c-0.2,0.5-0.8,0.7-1.4,0.5c-0.5-0.2-0.7-0.8-0.5-1.3c0.2-0.5,0.8-0.7,1.3-0.5
			C1516.8,526.8,1517.1,527.4,1516.8,527.9z"/>
	</g>
	<g>
		<path class="st0" d="M1616.8,333c-0.5,1-1.6,1.5-2.6,1c-1-0.5-1.5-1.6-1-2.6c0.5-1,1.6-1.5,2.7-1
			C1616.9,330.8,1617.3,332,1616.8,333z"/>
	</g>
	<g>
		<path class="st0" d="M1455,475.3c-0.3,0.6-1,0.9-1.6,0.6c-0.6-0.3-0.9-1-0.6-1.6c0.3-0.6,1-0.9,1.6-0.6
			C1455,474,1455.3,474.7,1455,475.3z"/>
	</g>
	<g>
		<path class="st0" d="M1531.5,311.1c-0.4,0.9-1.4,1.3-2.3,0.9c-0.9-0.4-1.3-1.4-0.9-2.3c0.4-0.9,1.4-1.3,2.3-0.9
			C1531.5,309.2,1531.9,310.2,1531.5,311.1z"/>
	</g>
	<g>
		<path class="st0" d="M1524.5,235.6c-0.4,0.9-1.4,1.3-2.3,0.9c-0.9-0.4-1.3-1.4-0.9-2.3c0.4-0.9,1.4-1.3,2.3-0.9
			C1524.6,233.7,1524.9,234.7,1524.5,235.6z"/>
	</g>
	<g>
		<path class="st0" d="M1433.9,307.1c-0.4,0.9-1.4,1.2-2.2,0.9c-0.9-0.4-1.2-1.4-0.8-2.2c0.4-0.9,1.4-1.2,2.2-0.9
			C1433.9,305.3,1434.3,306.3,1433.9,307.1z"/>
	</g>
	<g>
		
			<ellipse transform="matrix(0.4105 -0.9119 0.9119 0.4105 557.5558 1450.58)" class="st0" cx="1400.6" cy="294.1" rx="1.1" ry="1.1"/>
	</g>
	<g>
		<path class="st1" d="M1326.8,367.9c-0.5,1-1.6,1.5-2.7,1c-1-0.5-1.5-1.7-1-2.7c0.5-1,1.7-1.5,2.7-1
			C1326.9,365.7,1327.3,366.9,1326.8,367.9z"/>
	</g>
	<g>
		<path class="st0" d="M1302.8,332.1c-0.3,0.6-1,0.9-1.6,0.6c-0.6-0.3-0.9-1-0.6-1.6c0.3-0.6,1-0.9,1.6-0.6
			C1302.8,330.8,1303.1,331.5,1302.8,332.1z"/>
	</g>
	<g>
		
			<ellipse transform="matrix(0.4105 -0.9119 0.9119 0.4105 460.611 1351.627)" class="st0" cx="1275.6" cy="319.6" rx="1.1" ry="1.1"/>
	</g>
	<g>
		
			<ellipse transform="matrix(0.4105 -0.9119 0.9119 0.4105 491.6384 1313.5397)" class="st0" cx="1261.7" cy="276.5" rx="1.2" ry="1.2"/>
	</g>
	<g>
		
			<ellipse transform="matrix(0.4105 -0.9119 0.9119 0.4105 436.142 1279.6631)" class="st0" cx="1207.7" cy="302.5" rx="1.5" ry="1.5"/>
	</g>
	<g>
		
			<ellipse transform="matrix(0.4105 -0.9119 0.9119 0.4105 439.4203 1236.7697)" class="st0" cx="1176.2" cy="278.5" rx="1.9" ry="1.9"/>
	</g>
	<g>
		<ellipse transform="matrix(0.4105 -0.9119 0.9119 0.4105 533.032 1180.0618)" class="st0" cx="1179.2" cy="177.8" rx="1" ry="1"/>
	</g>
	<g>
		<ellipse transform="matrix(0.4105 -0.9119 0.9119 0.4105 616.5864 1126.4694)" class="st0" cx="1179.5" cy="86.4" rx="2" ry="2"/>
	</g>
	<g>
		
			<ellipse transform="matrix(0.4105 -0.9119 0.9119 0.4105 542.046 1087.6116)" class="st0" cx="1112.2" cy="124.6" rx="0.9" ry="0.9"/>
	</g>
	<g>
		<path class="st1" d="M1088.3,84.5c-0.3,0.7-1.1,0.9-1.7,0.6c-0.7-0.3-0.9-1.1-0.6-1.7c0.3-0.7,1.1-0.9,1.7-0.7
			C1088.3,83.1,1088.6,83.9,1088.3,84.5z"/>
	</g>
	<g>
		
			<ellipse transform="matrix(0.4105 -0.9119 0.9119 0.4105 375.0219 1040.1262)" class="st0" cx="991.9" cy="230" rx="1.8" ry="1.8"/>
	</g>
	<g>
		<path class="st3" d="M1028.8,59.9c-0.4,1-1.6,1.4-2.6,1c-1-0.5-1.5-1.6-1-2.6c0.5-1,1.6-1.5,2.6-1
			C1028.8,57.8,1029.2,58.9,1028.8,59.9z"/>
	</g>
	<g>
		<ellipse transform="matrix(0.4105 -0.9119 0.9119 0.4105 410.249 956.2137)" class="st1" cx="944.6" cy="160.8" rx="2" ry="2"/>
	</g>
	<g>
		<path class="st0" d="M979-74.3c-0.2,0.5-0.9,0.8-1.4,0.5c-0.5-0.2-0.8-0.9-0.5-1.4c0.2-0.6,0.9-0.8,1.4-0.5
			C979-75.5,979.3-74.8,979-74.3z"/>
	</g>
	<g>
		
			<ellipse transform="matrix(0.4105 -0.9119 0.9119 0.4105 384.6833 962.9882)" class="st1" cx="937.1" cy="184" rx="1.8" ry="1.8"/>
	</g>
	<g>
		<ellipse transform="matrix(0.4105 -0.9119 0.9119 0.4105 514.4935 869.3458)" class="st0" cx="929.6" cy="36.8" rx="2" ry="2"/>
	</g>
	<g>
		<ellipse transform="matrix(0.4105 -0.9119 0.9119 0.4105 603.4629 936.528)" class="st0" cx="1026" cy="1.6" rx="1.9" ry="1.9"/>
	</g>
	<g>
		
			<ellipse transform="matrix(0.4105 -0.9119 0.9119 0.4105 439.5868 1055.2434)" class="st0" cx="1035.9" cy="187.7" rx="1.5" ry="1.5"/>
	</g>
	<g>
		
			<ellipse transform="matrix(0.4105 -0.9119 0.9119 0.4105 495.7541 1081.4069)" class="st3" cx="1084.2" cy="157.3" rx="1.7" ry="1.7"/>
	</g>
	<g>
		<path class="st1" d="M1274.5,405.7c-0.4,1-1.6,1.4-2.6,1c-1-0.4-1.4-1.6-1-2.6c0.4-1,1.6-1.4,2.6-1
			C1274.5,403.5,1275,404.7,1274.5,405.7z"/>
	</g>
	<g>
		
			<ellipse transform="matrix(0.4105 -0.9119 0.9119 0.4105 408.5796 1183.2935)" class="st1" cx="1119.4" cy="275.7" rx="1" ry="1"/>
	</g>
	<g>
		
			<ellipse transform="matrix(0.4105 -0.9119 0.9119 0.4105 454.4581 1198.6748)" class="st0" cx="1154.3" cy="247.9" rx="1.8" ry="1.8"/>
	</g>
	<g>
		
			<ellipse transform="matrix(0.4105 -0.9119 0.9119 0.4105 480.1317 1233.025)" class="st0" cx="1193.7" cy="245.2" rx="1.4" ry="1.4"/>
	</g>
	<g>
		<path class="st0" d="M1246.2,188.2c-0.4,0.9-1.5,1.4-2.5,0.9c-0.9-0.4-1.4-1.5-0.9-2.5c0.4-0.9,1.5-1.4,2.5-0.9
			C1246.2,186.2,1246.6,187.3,1246.2,188.2z"/>
	</g>
	<g>
		<path class="st0" d="M1267.8,304.4c-0.3,0.7-1.1,1-1.8,0.7c-0.7-0.3-1-1.1-0.7-1.8c0.3-0.7,1.1-1,1.8-0.7
			C1267.8,302.9,1268.1,303.7,1267.8,304.4z"/>
	</g>
	<g>
		<ellipse transform="matrix(0.4105 -0.9119 0.9119 0.4105 633.6704 1313.302)" class="st0" cx="1332.5" cy="166.6" rx="2" ry="2"/>
	</g>
	<g>
		<path class="st0" d="M1361.9,182c-0.4,0.8-1.3,1.2-2.2,0.8c-0.8-0.4-1.2-1.3-0.8-2.1c0.4-0.8,1.3-1.2,2.1-0.8
			C1361.9,180.2,1362.3,181.2,1361.9,182z"/>
	</g>
	<g>
		
			<ellipse transform="matrix(0.4105 -0.9119 0.9119 0.4105 600.0727 1397.3259)" class="st0" cx="1380.7" cy="234.6" rx="1.4" ry="1.4"/>
	</g>
	<g>
		<path class="st0" d="M1401,314.2c-0.5,1-1.7,1.5-2.7,1c-1-0.5-1.5-1.6-1-2.7c0.5-1,1.7-1.5,2.7-1
			C1401,312,1401.5,313.2,1401,314.2z"/>
	</g>
	<g>
		<path class="st0" d="M1499.6,314.2c-0.3,0.7-1.2,1.1-1.9,0.7c-0.7-0.3-1.1-1.2-0.7-1.9c0.3-0.7,1.2-1.1,1.9-0.7
			C1499.6,312.6,1500,313.5,1499.6,314.2z"/>
	</g>
	<g>
		<path class="st0" d="M1405.4,199.8c-0.4,0.8-1.3,1.1-2,0.8c-0.8-0.3-1.1-1.3-0.8-2c0.3-0.8,1.3-1.1,2-0.8
			C1405.4,198.2,1405.8,199.1,1405.4,199.8z"/>
	</g>
	<g>
		
			<ellipse transform="matrix(0.4105 -0.9119 0.9119 0.4105 629.8235 942.8038)" class="st0" cx="1044.1" cy="-15.7" rx="1.4" ry="1.4"/>
	</g>
</g>
<g>
	<g>
		<circle class="st0" cx="130.7" cy="129.2" r="2"/>
	</g>
	<g>
		<circle class="st1" cx="141.6" cy="161.1" r="1.4"/>
	</g>
	<g>
		<circle class="st0" cx="73.1" cy="208.3" r="1.2"/>
	</g>
	<g>
		<ellipse class="st0" cx="47.4" cy="249" rx="1.3" ry="1.3"/>
	</g>
	<g>
		<ellipse class="st1" cx="210.1" cy="290.7" rx="2.1" ry="2.1"/>
	</g>
	<g>
		<path class="st1" d="M61.9,316.2c0,0.6-0.5,1.2-1.2,1.2c-0.6,0-1.2-0.5-1.2-1.2c0-0.6,0.5-1.2,1.2-1.2
			C61.4,315.1,61.9,315.6,61.9,316.2z"/>
	</g>
	<g>
		<ellipse class="st0" cx="157" cy="326.2" rx="1.3" ry="1.4"/>
	</g>
	<g>
		<circle class="st0" cx="181.6" cy="353.1" r="1.3"/>
	</g>
	<g>
		<circle class="st0" cx="132.4" cy="390.4" r="2"/>
	</g>
	<g>
		<path class="st0" d="M105.3,436.3c0,0.9-0.7,1.6-1.6,1.6c-0.9,0-1.6-0.7-1.6-1.6c0-0.9,0.7-1.6,1.6-1.6
			C104.6,434.6,105.3,435.4,105.3,436.3z"/>
	</g>
	<g>
		<ellipse class="st0" cx="4.3" cy="500.6" rx="1" ry="1"/>
	</g>
	<g>
		<path class="st0" d="M219,464.4c0,1-0.8,1.8-1.8,1.8c-1,0-1.8-0.8-1.8-1.8c0-1,0.8-1.8,1.8-1.8C218.2,462.6,219,463.4,219,464.4z"
			/>
	</g>
	<g>
		<path class="st1" d="M166.2,522.1c0,1-0.8,1.8-1.8,1.8c-1,0-1.8-0.8-1.8-1.8c0-1,0.8-1.8,1.8-1.8
			C165.4,520.3,166.2,521.1,166.2,522.1z"/>
	</g>
	<g>
		<path class="st2" d="M76.3,601.2c0,0.9-0.7,1.6-1.6,1.6c-0.9,0-1.6-0.7-1.6-1.6c0-0.9,0.7-1.6,1.6-1.6
			C75.6,599.5,76.3,600.3,76.3,601.2z"/>
	</g>
	<g>
		<ellipse class="st0" cx="130.3" cy="623.5" rx="1.2" ry="1.2"/>
	</g>
	<g>
		<path class="st0" d="M194.1,644.7c0,0.9-0.7,1.5-1.6,1.5c-0.9,0-1.5-0.7-1.5-1.5c0-0.9,0.7-1.5,1.5-1.5
			C193.4,643.1,194.1,643.8,194.1,644.7z"/>
	</g>
	<g>
		<path class="st0" d="M109.8,726.9c0,1.1-0.9,2.1-2.1,2.1c-1.1,0-2.1-0.9-2.1-2.1c0-1.1,0.9-2.1,2.1-2.1
			C108.9,724.9,109.8,725.8,109.8,726.9z"/>
	</g>
	<g>
		<ellipse class="st0" cx="222.3" cy="697.6" rx="1.8" ry="1.8"/>
	</g>
	<g>
		<path class="st0" d="M256.1,710.7c0,1.1-0.9,1.9-2,1.9c-1.1,0-1.9-0.9-1.9-1.9c0-1.1,0.9-2,1.9-2
			C255.2,708.8,256.1,709.7,256.1,710.7z"/>
	</g>
	<g>
		<path class="st0" d="M182.4,695.7c0,0.6-0.4,1-1,1c-0.6,0-1-0.4-1-1c0-0.6,0.5-1,1-1C182,694.7,182.4,695.2,182.4,695.7z"/>
	</g>
	<g>
		<path class="st0" d="M493,565.9c0,0.6-0.5,1.1-1.1,1.1c-0.6,0-1.1-0.5-1.1-1.1c0-0.6,0.5-1.1,1.1-1.1
			C492.5,564.8,493,565.3,493,565.9z"/>
	</g>
	<g>
		<path class="st3" d="M392.6,736.5c0,1.1-0.9,1.9-2,1.9c-1.1,0-2-0.9-2-1.9c0-1.1,0.9-2,2-2C391.7,734.6,392.6,735.5,392.6,736.5z"
			/>
	</g>
	<g>
		<path class="st0" d="M470,682.5c0,0.6-0.5,1.1-1.1,1.1s-1.1-0.5-1.1-1.1c0-0.6,0.5-1.1,1.1-1.1S470,681.9,470,682.5z"/>
	</g>
	<g>
		<path class="st2" d="M258.1,681.7c0,1-0.8,1.8-1.8,1.8c-1,0-1.8-0.8-1.8-1.8c0-1,0.8-1.8,1.8-1.8
			C257.3,679.9,258.1,680.7,258.1,681.7z"/>
	</g>
	<g>
		<ellipse class="st0" cx="227.4" cy="648.1" rx="1.7" ry="1.6"/>
	</g>
	<g>
		<path class="st3" d="M293.6,592.1c0,1.1-0.9,2-2,2c-1.1,0-2-0.9-2-2c0-1.1,0.9-2,2-2C292.7,590.1,293.6,591,293.6,592.1z"/>
	</g>
	<g>
		<path class="st0" d="M323.6,559c0,0.8-0.7,1.5-1.5,1.5c-0.8,0-1.5-0.7-1.5-1.5c0-0.8,0.7-1.5,1.5-1.5
			C322.9,557.5,323.6,558.2,323.6,559z"/>
	</g>
	<g>
		<path class="st0" d="M268.7,531.8c0,1-0.8,1.8-1.8,1.8c-1,0-1.8-0.8-1.8-1.8c0-1,0.8-1.8,1.8-1.8
			C267.9,530.1,268.7,530.8,268.7,531.8z"/>
	</g>
	<g>
		<path class="st1" d="M187.6,499c0,0.8-0.6,1.4-1.4,1.4c-0.8,0-1.4-0.6-1.4-1.4c0-0.8,0.6-1.4,1.4-1.4
			C187,497.5,187.6,498.2,187.6,499z"/>
	</g>
	<g>
		<path class="st3" d="M423.1,435.5c0,1.1-0.9,2-2,2c-1.1,0-2-0.9-2-2c0-1.1,0.9-2,2-2C422.2,433.5,423.1,434.4,423.1,435.5z"/>
	</g>
	<g>
		<path class="st0" d="M283.5,421.9c0,0.5-0.4,0.9-1,0.9c-0.5,0-0.9-0.4-0.9-0.9c0-0.5,0.4-1,0.9-1C283,421,283.5,421.4,283.5,421.9
			z"/>
	</g>
	<g>
		<circle class="st0" cx="324.6" cy="383" r="1"/>
	</g>
	<g>
		<path class="st0" d="M287,356.9c0,1.1-0.9,2-2,2c-1.1,0-2-0.9-2-2c0-1.1,0.9-2,2-2C286.1,354.9,287,355.8,287,356.9z"/>
	</g>
	<g>
		<circle class="st0" cx="243.3" cy="315.5" r="1.8"/>
	</g>
	<g>
		<path class="st0" d="M369.3,271.7c0,0.6-0.5,1.1-1.1,1.1c-0.6,0-1.1-0.5-1.1-1.1c0-0.6,0.5-1.1,1.1-1.1
			C368.8,270.6,369.3,271.1,369.3,271.7z"/>
	</g>
	<g>
		<circle class="st0" cx="288" cy="245.7" r="1.5"/>
	</g>
	<g>
		<circle class="st0" cx="260.3" cy="200.7" r="1.6"/>
	</g>
	<g>
		<circle class="st0" cx="238.1" cy="154.8" r="1.9"/>
	</g>
	<g>
		<path class="st2" d="M364.7,138.7c0,1-0.8,1.8-1.8,1.8c-1,0-1.8-0.8-1.8-1.8c0-1,0.8-1.8,1.8-1.8
			C363.8,136.9,364.7,137.7,364.7,138.7z"/>
	</g>
	<g>
		<ellipse class="st0" cx="373" cy="113.9" rx="1.6" ry="1.6"/>
	</g>
	<g>
		<circle class="st3" cx="303.3" cy="82.8" r="1.5"/>
	</g>
	<g>
		<ellipse class="st0" cx="426.4" cy="95.6" rx="1.3" ry="1.2"/>
	</g>
	<g>
		<ellipse class="st3" cx="323.2" cy="32" rx="2" ry="2"/>
	</g>
	<g>
		<path class="st0" d="M385.6,40c0,1-0.8,1.9-1.9,1.9c-1,0-1.9-0.8-1.9-1.9c0-1,0.9-1.9,1.9-1.9C384.8,38.1,385.6,39,385.6,40z"/>
	</g>
	<g>
		<path class="st0" d="M414.7,3.7c0,1.2-0.9,2.1-2.1,2.1c-1.1,0-2.1-0.9-2.1-2.1c0-1.1,0.9-2.1,2.1-2.1
			C413.7,1.6,414.7,2.5,414.7,3.7z"/>
	</g>
	<g>
		<path class="st0" d="M443.4,31.8c0,0.6-0.5,1.2-1.1,1.2c-0.6,0-1.1-0.5-1.1-1.2s0.5-1.2,1.1-1.2C442.9,30.6,443.4,31.1,443.4,31.8
			z"/>
	</g>
	<g>
		<circle class="st2" cx="342.6" cy="134.7" r="1.7"/>
	</g>
	<g>
		<circle class="st0" cx="427.7" cy="192.8" r="1.9"/>
	</g>
	<g>
		<path class="st0" d="M577,82.4c0,0.9-0.7,1.7-1.6,1.7c-0.9,0-1.7-0.7-1.7-1.7c0-0.9,0.8-1.7,1.7-1.7C576.2,80.7,577,81.5,577,82.4
			z"/>
	</g>
	<g>
		<ellipse class="st0" cx="597.2" cy="108.6" rx="1.4" ry="1.4"/>
	</g>
	<g>
		<path class="st3" d="M584.7,161.4c0,1.1-0.9,2-2,2c-1.1,0-2-0.9-2-2c0-1.1,0.9-2,2-2C583.8,159.4,584.7,160.3,584.7,161.4z"/>
	</g>
	<g>
		<ellipse class="st0" cx="409.1" cy="261.4" rx="1.2" ry="1.2"/>
	</g>
	<g>
		<circle class="st0" cx="626.8" cy="225.5" r="1.9"/>
	</g>
	<g>
		<path class="st1" d="M467,302.7c0,0.6-0.5,1.2-1.2,1.2c-0.6,0-1.2-0.5-1.2-1.2s0.5-1.2,1.2-1.2C466.5,301.5,467,302,467,302.7z"/>
	</g>
	<g>
		<path class="st0" d="M623.7,306.5c0,1.1-0.9,2.1-2.1,2.1s-2.1-0.9-2.1-2.1c0-1.2,0.9-2.1,2.1-2.1S623.7,305.3,623.7,306.5z"/>
	</g>
	<g>
		<path class="st0" d="M642.6,351.5c0,1-0.8,1.8-1.8,1.8c-1,0-1.8-0.8-1.8-1.8c0-1,0.8-1.8,1.8-1.8
			C641.8,349.7,642.6,350.5,642.6,351.5z"/>
	</g>
	<g>
		<circle class="st0" cx="421.1" cy="398.9" r="1.6"/>
	</g>
	<g>
		<path class="st0" d="M579.8,426.1c0,1-0.8,1.8-1.8,1.8c-1,0-1.8-0.8-1.8-1.8c0-1,0.8-1.8,1.8-1.8
			C579,424.3,579.8,425.1,579.8,426.1z"/>
	</g>
	<g>
		<path class="st0" d="M605,465.1c0,0.7-0.6,1.2-1.3,1.2c-0.7,0-1.3-0.5-1.3-1.2c0-0.7,0.6-1.3,1.3-1.3
			C604.5,463.8,605,464.4,605,465.1z"/>
	</g>
	<g>
		<path class="st2" d="M658.4,511.8c0,0.7-0.6,1.3-1.2,1.3c-0.7,0-1.3-0.6-1.3-1.3c0-0.7,0.6-1.2,1.3-1.2
			C657.8,510.6,658.4,511.1,658.4,511.8z"/>
	</g>
	<g>
		<path class="st0" d="M640,577.1c0,1.1-0.9,2-2,2c-1.1,0-2-0.9-2-2s0.9-2,2-2C639.1,575.2,640,576,640,577.1z"/>
	</g>
	<g>
		<path class="st0" d="M597.4,591.7c0,0.8-0.6,1.4-1.4,1.4c-0.8,0-1.4-0.6-1.4-1.4c0-0.8,0.6-1.4,1.4-1.4
			C596.8,590.4,597.4,591,597.4,591.7z"/>
	</g>
	<g>
		<path class="st1" d="M415.2,514.2c0,0.5-0.4,1-1,1c-0.5,0-1-0.4-1-1c0-0.5,0.4-0.9,1-0.9C414.8,513.2,415.2,513.6,415.2,514.2z"/>
	</g>
	<g>
		<path class="st1" d="M409.9,564.7c0,0.6-0.5,1.2-1.2,1.2c-0.6,0-1.2-0.5-1.2-1.2c0-0.6,0.5-1.1,1.2-1.1
			C409.4,563.6,409.9,564.1,409.9,564.7z"/>
	</g>
	<g>
		<path class="st0" d="M526.4,749.5c0,0.8-0.6,1.5-1.5,1.5c-0.8,0-1.5-0.6-1.5-1.5c0-0.8,0.7-1.5,1.5-1.5
			C525.8,748.1,526.4,748.7,526.4,749.5z"/>
	</g>
	<g>
		<path class="st0" d="M459.9,722.6c0,0.8-0.7,1.5-1.5,1.5c-0.9,0-1.5-0.7-1.5-1.5c0-0.8,0.7-1.5,1.5-1.5
			C459.2,721.1,459.9,721.8,459.9,722.6z"/>
	</g>
	<g>
		<path class="st0" d="M408.5,719.9c0,1-0.8,1.8-1.8,1.8c-1,0-1.8-0.8-1.8-1.8c0-1,0.8-1.8,1.8-1.8
			C407.7,718.1,408.5,718.9,408.5,719.9z"/>
	</g>
	<g>
		<path class="st0" d="M333,606.3c0,0.9-0.7,1.5-1.5,1.5c-0.8,0-1.5-0.7-1.5-1.5c0-0.8,0.7-1.5,1.5-1.5
			C332.3,604.7,333,605.4,333,606.3z"/>
	</g>
	<g>
		<ellipse class="st0" cx="314.8" cy="602.7" rx="1.1" ry="1.1"/>
	</g>
	<g>
		<path class="st0" d="M295.2,718.7c0,1.1-0.9,2.1-2.1,2.1c-1.1,0-2.1-0.9-2.1-2.1c0-1.1,0.9-2.1,2.1-2.1
			C294.2,716.6,295.2,717.5,295.2,718.7z"/>
	</g>
	<g>
		<path class="st0" d="M231.8,683.1c0,1-0.8,1.8-1.8,1.8c-1,0-1.8-0.8-1.8-1.8c0-1,0.8-1.8,1.8-1.8
			C231,681.3,231.8,682.1,231.8,683.1z"/>
	</g>
	<g>
		<ellipse class="st0" cx="189.5" cy="741.2" rx="1.7" ry="1.7"/>
	</g>
	<g>
		<path class="st0" d="M151.1,745.8c0,0.8-0.6,1.4-1.4,1.4c-0.8,0-1.4-0.6-1.4-1.4c0-0.8,0.6-1.4,1.4-1.4
			C150.5,744.4,151.1,745,151.1,745.8z"/>
	</g>
	<g>
		<path class="st0" d="M115.3,730.1c0,0.9-0.7,1.6-1.6,1.6c-0.9,0-1.6-0.7-1.6-1.6c0-0.9,0.7-1.6,1.6-1.6
			C114.5,728.5,115.3,729.2,115.3,730.1z"/>
	</g>
	<g>
		<path class="st0" d="M76.9,705.1c0,0.8-0.7,1.4-1.5,1.4c-0.8,0-1.5-0.6-1.5-1.4c0-0.8,0.7-1.5,1.5-1.5
			C76.2,703.7,76.9,704.3,76.9,705.1z"/>
	</g>
	<g>
		<ellipse class="st0" cx="55.3" cy="711" rx="1.4" ry="1.4"/>
	</g>
	<g>
		<path class="st0" d="M56,669.5c0,0.6-0.5,1.1-1,1.1c-0.6,0-1.1-0.5-1.1-1.1c0-0.6,0.5-1,1.1-1C55.5,668.4,56,668.9,56,669.5z"/>
	</g>
	<g>
		<ellipse class="st2" cx="91.7" cy="619" rx="1.6" ry="1.6"/>
	</g>
	<g>
		<path class="st2" d="M282.6,658.3c0,0.6-0.5,1-1,1c-0.6,0-1-0.5-1-1c0-0.6,0.5-1,1-1C282.1,657.3,282.6,657.7,282.6,658.3z"/>
	</g>
	<g>
		<path class="st0" d="M198.4,629c0,0.9-0.7,1.6-1.6,1.6c-0.9,0-1.6-0.7-1.6-1.6c0-0.9,0.7-1.6,1.6-1.6
			C197.7,627.3,198.4,628.1,198.4,629z"/>
	</g>
	<g>
		<path class="st2" d="M247.7,683.3c0,0.7-0.6,1.3-1.3,1.3c-0.7,0-1.3-0.6-1.3-1.3c0-0.7,0.6-1.3,1.3-1.3
			C247.1,682,247.7,682.6,247.7,683.3z"/>
	</g>
	<g>
		<path class="st0" d="M270.9,554.7c0,1-0.8,1.9-1.9,1.9c-1,0-1.9-0.9-1.9-1.9c0-1.1,0.9-1.9,1.9-1.9
			C270.1,552.8,270.9,553.7,270.9,554.7z"/>
	</g>
	<g>
		<path class="st0" d="M340.3,740.8c0,0.9-0.7,1.6-1.6,1.6c-0.9,0-1.6-0.7-1.6-1.6s0.7-1.6,1.6-1.6
			C339.6,739.2,340.3,739.9,340.3,740.8z"/>
	</g>
	<g>
		<path class="st0" d="M337,563.3c0,0.7-0.6,1.3-1.3,1.3c-0.7,0-1.3-0.6-1.3-1.3c0-0.7,0.6-1.3,1.3-1.3
			C336.4,561.9,337,562.5,337,563.3z"/>
	</g>
	<g>
		<path class="st0" d="M395.7,702.7c0,0.6-0.5,1.1-1.2,1.1c-0.6,0-1.1-0.5-1.1-1.1c0-0.6,0.5-1.1,1.1-1.1
			C395.2,701.5,395.7,702,395.7,702.7z"/>
	</g>
	<g>
		<path class="st1" d="M408.2,535.9c0,0.6-0.5,1.2-1.2,1.2c-0.6,0-1.2-0.5-1.2-1.2c0-0.6,0.5-1.2,1.2-1.2
			C407.7,534.7,408.2,535.3,408.2,535.9z"/>
	</g>
	<g>
		<path class="st1" d="M449.4,526.1c0,0.7-0.6,1.3-1.3,1.3c-0.7,0-1.3-0.6-1.3-1.3s0.6-1.3,1.3-1.3
			C448.8,524.8,449.4,525.4,449.4,526.1z"/>
	</g>
	<g>
		<path class="st1" d="M510.6,715.9c0,0.7-0.6,1.2-1.2,1.2c-0.7,0-1.3-0.5-1.3-1.2c0-0.7,0.6-1.2,1.3-1.2
			C510,714.6,510.6,715.2,510.6,715.9z"/>
	</g>
	<g>
		<path class="st0" d="M542.2,743.5c0,0.7-0.6,1.4-1.3,1.4c-0.8,0-1.4-0.6-1.4-1.4c0-0.7,0.6-1.4,1.4-1.4
			C541.6,742.1,542.2,742.7,542.2,743.5z"/>
	</g>
	<g>
		<path class="st0" d="M569.7,658.3c0,0.9-0.7,1.6-1.6,1.6c-0.9,0-1.6-0.7-1.6-1.6s0.7-1.6,1.6-1.6
			C569,656.7,569.7,657.4,569.7,658.3z"/>
	</g>
	<g>
		<path class="st0" d="M609.1,722c0,1-0.8,1.9-1.9,1.9c-1,0-1.9-0.9-1.9-1.9c0-1,0.8-1.9,1.9-1.9C608.3,720.1,609.1,721,609.1,722z"
			/>
	</g>
	<g>
		<path class="st2" d="M602.4,517.9c0,0.7-0.6,1.3-1.3,1.3c-0.7,0-1.3-0.6-1.3-1.3c0-0.7,0.6-1.3,1.3-1.3
			C601.9,516.6,602.4,517.2,602.4,517.9z"/>
	</g>
	<g>
		<path class="st3" d="M661.5,641.7c0,0.9-0.7,1.6-1.6,1.6c-0.9,0-1.6-0.7-1.6-1.6c0-0.9,0.7-1.6,1.6-1.6
			C660.8,640.1,661.5,640.8,661.5,641.7z"/>
	</g>
	<g>
		<path class="st3" d="M716.4,717c0,0.9-0.7,1.6-1.6,1.6c-0.9,0-1.6-0.7-1.6-1.6c0-0.9,0.7-1.6,1.6-1.6
			C715.7,715.4,716.4,716.1,716.4,717z"/>
	</g>
	<g>
		<path class="st0" d="M717.7,579.4c0,1-0.8,1.8-1.8,1.8c-1,0-1.8-0.8-1.8-1.8s0.8-1.8,1.8-1.8C716.9,577.6,717.7,578.4,717.7,579.4
			z"/>
	</g>
	<g>
		<path class="st1" d="M689.2,553.9c0,0.8-0.7,1.5-1.5,1.5s-1.5-0.7-1.5-1.5s0.6-1.5,1.5-1.5S689.2,553.1,689.2,553.9z"/>
	</g>
	<g>
		<circle class="st2" cx="656.5" cy="499.1" r="1.1"/>
	</g>
	<g>
		<path class="st0" d="M625.9,482.5c0,0.8-0.6,1.4-1.4,1.4c-0.8,0-1.4-0.6-1.4-1.4c0-0.8,0.6-1.4,1.4-1.4
			C625.3,481.1,625.9,481.7,625.9,482.5z"/>
	</g>
	<g>
		<path class="st0" d="M587.6,594.2c0,0.7-0.5,1.2-1.2,1.2s-1.2-0.6-1.2-1.2c0-0.7,0.5-1.2,1.2-1.2S587.6,593.5,587.6,594.2z"/>
	</g>
	<g>
		<path class="st2" d="M550.2,423.1c0,0.9-0.8,1.7-1.7,1.7c-0.9,0-1.7-0.8-1.7-1.7c0-0.9,0.7-1.7,1.7-1.7
			C549.5,421.5,550.2,422.2,550.2,423.1z"/>
	</g>
	<g>
		<path class="st0" d="M515.2,438.7c0,0.5-0.4,1-0.9,1c-0.5,0-1-0.4-1-1c0-0.5,0.4-1,1-1C514.8,437.8,515.2,438.2,515.2,438.7z"/>
	</g>
	<g>
		<path class="st0" d="M486,453.3c0,0.8-0.6,1.5-1.5,1.5s-1.5-0.7-1.5-1.5c0-0.8,0.6-1.4,1.5-1.4S486,452.5,486,453.3z"/>
	</g>
	<g>
		<path class="st0" d="M439.7,557c0,0.6-0.4,1-1,1c-0.5,0-1-0.4-1-1c0-0.5,0.4-1,1-1C439.3,556,439.7,556.4,439.7,557z"/>
	</g>
	<g>
		<path class="st0" d="M386.4,662.2c0,0.9-0.7,1.6-1.6,1.6c-0.9,0-1.6-0.7-1.6-1.6c0-0.9,0.7-1.6,1.6-1.6
			C385.7,660.6,386.4,661.3,386.4,662.2z"/>
	</g>
	<g>
		<path class="st0" d="M352.6,652c0,0.9-0.8,1.7-1.7,1.7c-0.9,0-1.7-0.7-1.7-1.7c0-0.9,0.8-1.7,1.7-1.7
			C351.8,650.4,352.6,651.1,352.6,652z"/>
	</g>
	<g>
		<circle class="st0" cx="341.5" cy="438.9" r="2"/>
	</g>
	<g>
		<path class="st3" d="M299.4,590.7c0,0.7-0.6,1.4-1.3,1.4c-0.7,0-1.3-0.6-1.3-1.4s0.6-1.4,1.3-1.4
			C298.7,589.4,299.4,590,299.4,590.7z"/>
	</g>
	<g>
		<path class="st3" d="M271.8,575.8c0,0.6-0.5,1.1-1,1.1c-0.6,0-1-0.5-1-1.1c0-0.6,0.5-1,1-1C271.3,574.7,271.8,575.2,271.8,575.8z"
			/>
	</g>
	<g>
		<ellipse class="st0" cx="241.6" cy="502.1" rx="1.5" ry="1.5"/>
	</g>
	<g>
		<path class="st0" d="M229.6,406.2c0,1.1-0.9,2.1-2.1,2.1c-1.1,0-2.1-0.9-2.1-2.1c0-1.1,0.9-2,2.1-2
			C228.7,404.1,229.6,405,229.6,406.2z"/>
	</g>
	<g>
		<path class="st0" d="M135,616.2c0,1-0.8,1.8-1.8,1.8c-1,0-1.8-0.8-1.8-1.8c0-1,0.8-1.8,1.8-1.8C134.2,614.4,135,615.2,135,616.2z"
			/>
	</g>
	<g>
		<circle class="st0" cx="156.1" cy="386.2" r="1"/>
	</g>
	<g>
		<circle class="st0" cx="141.5" cy="368.2" r="2"/>
	</g>
	<g>
		<path class="st3" d="M46.4,535.4c0,0.8-0.7,1.5-1.5,1.5c-0.8,0-1.5-0.7-1.5-1.5c0-0.8,0.7-1.5,1.5-1.5
			C45.7,533.9,46.4,534.6,46.4,535.4z"/>
	</g>
	<g>
		<path class="st2" d="M62.7,406.6c0,0.9-0.7,1.6-1.6,1.6c-0.9,0-1.6-0.7-1.6-1.6c0-0.9,0.7-1.6,1.6-1.6
			C61.9,405,62.7,405.7,62.7,406.6z"/>
	</g>
	<g>
		<circle class="st0" cx="73.5" cy="368.4" r="1.4"/>
	</g>
	<g>
		<path class="st3" d="M81.5,481.9c0,0.9-0.8,1.7-1.7,1.7c-0.9,0-1.7-0.8-1.7-1.7c0-0.9,0.8-1.7,1.7-1.7
			C80.7,480.2,81.5,481,81.5,481.9z"/>
	</g>
	<g>
		<circle class="st0" cx="-7.4" cy="341.4" r="1.6"/>
	</g>
	<g>
		<ellipse class="st0" cx="41.8" cy="462.6" rx="1.2" ry="1.2"/>
	</g>
	<g>
		<path class="st3" d="M78.7,461.1c0,1-0.8,1.8-1.8,1.8c-1,0-1.8-0.8-1.8-1.8c0-1,0.8-1.8,1.8-1.8C77.9,459.4,78.7,460.2,78.7,461.1
			z"/>
	</g>
	<g>
		<path class="st3" d="M112,482c0,0.8-0.6,1.4-1.4,1.4c-0.8,0-1.4-0.6-1.4-1.4s0.6-1.5,1.4-1.5C111.4,480.5,112,481.2,112,482z"/>
	</g>
	<g>
		<circle class="st0" cx="145.1" cy="319.2" r="1.5"/>
	</g>
	<g>
		<path class="st0" d="M175.4,393.2c0,0.6-0.5,1.1-1.1,1.1c-0.6,0-1-0.5-1-1.1c0-0.6,0.5-1,1-1C174.9,392.2,175.4,392.7,175.4,393.2
			z"/>
	</g>
	<g>
		<path class="st0" d="M205.2,466.1c0,1-0.8,1.7-1.7,1.7c-0.9,0-1.7-0.8-1.7-1.7c0-0.9,0.8-1.7,1.7-1.7
			C204.4,464.4,205.2,465.2,205.2,466.1z"/>
	</g>
	<g>
		<circle class="st3" cx="230.2" cy="400.2" r="1.4"/>
	</g>
	<g>
		<path class="st0" d="M272.8,343.6c0,0.9-0.7,1.6-1.6,1.6c-0.9,0-1.6-0.7-1.6-1.6c0-0.9,0.7-1.6,1.6-1.6
			C272,341.9,272.8,342.7,272.8,343.6z"/>
	</g>
	<g>
		<path class="st0" d="M302.4,424.7c0,0.8-0.6,1.4-1.4,1.4c-0.8,0-1.4-0.6-1.4-1.4c0-0.8,0.6-1.4,1.4-1.4
			C301.7,423.3,302.4,423.9,302.4,424.7z"/>
	</g>
	<g>
		<path class="st0" d="M341.1,436.6c0,0.9-0.8,1.7-1.7,1.7c-0.9,0-1.7-0.8-1.7-1.7c0-0.9,0.8-1.7,1.7-1.7
			C340.4,434.9,341.1,435.7,341.1,436.6z"/>
	</g>
	<g>
		<circle class="st0" cx="364.7" cy="303.3" r="1.2"/>
	</g>
	<g>
		<ellipse class="st0" cx="413.1" cy="422.4" rx="2" ry="2"/>
	</g>
	<g>
		<path class="st0" d="M447.9,287.9c0,1.1-0.9,2.1-2.1,2.1c-1.1,0-2.1-0.9-2.1-2.1c0-1.2,0.9-2.1,2.1-2.1
			C447,285.8,447.9,286.7,447.9,287.9z"/>
	</g>
	<g>
		<ellipse class="st0" cx="702.3" cy="245.3" rx="1.7" ry="1.7"/>
	</g>
	<g>
		<path class="st0" d="M525,457.1c0,0.8-0.6,1.4-1.4,1.4c-0.8,0-1.4-0.6-1.4-1.4c0-0.8,0.6-1.4,1.4-1.4
			C524.4,455.7,525,456.3,525,457.1z"/>
	</g>
	<g>
		<path class="st0" d="M552.1,456.3c0,0.8-0.6,1.4-1.4,1.4c-0.8,0-1.4-0.6-1.4-1.4c0-0.8,0.6-1.4,1.4-1.4
			C551.4,454.9,552.1,455.5,552.1,456.3z"/>
	</g>
	<g>
		<path class="st3" d="M584.9,340.3c0,0.9-0.8,1.7-1.7,1.7c-0.9,0-1.7-0.8-1.7-1.7c0-0.9,0.8-1.7,1.7-1.7
			C584.1,338.6,584.9,339.4,584.9,340.3z"/>
	</g>
	<g>
		<path class="st3" d="M616.5,352.8c0,1-0.8,1.8-1.8,1.8c-1,0-1.9-0.8-1.9-1.8c0-1,0.8-1.8,1.9-1.8
			C615.6,350.9,616.5,351.8,616.5,352.8z"/>
	</g>
	<g>
		<path class="st0" d="M655.5,404.6c0,1.1-0.9,2.1-2.1,2.1c-1.1,0-2-0.9-2-2.1c0-1.1,0.9-2,2-2C654.6,402.6,655.5,403.5,655.5,404.6
			z"/>
	</g>
	<g>
		<path class="st0" d="M710,497.2c0,0.7-0.5,1.2-1.2,1.2s-1.2-0.6-1.2-1.2c0-0.7,0.5-1.2,1.2-1.2S710,496.5,710,497.2z"/>
	</g>
	<g>
		<path class="st0" d="M729.7,370.9c0,0.6-0.5,1-1,1c-0.6,0-1-0.5-1-1c0-0.6,0.4-1,1-1C729.2,369.9,729.7,370.4,729.7,370.9z"/>
	</g>
	<g>
		<path class="st0" d="M740.9,152.1c0,1.1-0.9,2-2,2c-1.1,0-2-0.9-2-2c0-1.1,0.9-2,2-2C740,150.1,740.9,151,740.9,152.1z"/>
	</g>
	<g>
		<path class="st0" d="M651.8,348.4c0,0.7-0.5,1.2-1.2,1.2c-0.7,0-1.2-0.5-1.2-1.2c0-0.7,0.5-1.2,1.2-1.2
			C651.2,347.2,651.8,347.7,651.8,348.4z"/>
	</g>
	<g>
		<path class="st0" d="M654.1,167.2c0,0.9-0.8,1.7-1.7,1.7c-0.9,0-1.7-0.8-1.7-1.7c0-1,0.8-1.7,1.7-1.7
			C653.3,165.5,654.1,166.2,654.1,167.2z"/>
	</g>
	<g>
		<path class="st0" d="M616.8,101.2c0,1-0.8,1.7-1.7,1.7c-1,0-1.7-0.8-1.7-1.7c0-1,0.8-1.7,1.7-1.7
			C616,99.5,616.8,100.3,616.8,101.2z"/>
	</g>
	<g>
		<path class="st0" d="M563.4,203.6c0,0.9-0.8,1.7-1.7,1.7c-0.9,0-1.7-0.8-1.7-1.7s0.8-1.7,1.7-1.7
			C562.7,201.9,563.4,202.7,563.4,203.6z"/>
	</g>
	<g>
		<circle class="st0" cx="527.8" cy="205.4" r="1.1"/>
	</g>
	<g>
		<path class="st1" d="M490.8,303c0,1.1-0.9,2-2,2c-1.1,0-2-0.9-2-2c0-1.1,0.9-2,2-2C489.9,301,490.8,301.9,490.8,303z"/>
	</g>
	<g>
		<path class="st0" d="M454.2,280.2c0,0.7-0.5,1.2-1.2,1.2c-0.7,0-1.2-0.5-1.2-1.2c0-0.7,0.6-1.2,1.2-1.2
			C453.7,279,454.2,279.5,454.2,280.2z"/>
	</g>
	<g>
		<ellipse class="st0" cx="424.3" cy="280" rx="1.1" ry="1.1"/>
	</g>
	<g>
		<ellipse class="st0" cx="393.9" cy="246.4" rx="1.2" ry="1.2"/>
	</g>
	<g>
		<circle class="st0" cx="355.4" cy="292.3" r="1.5"/>
	</g>
	<g>
		<circle class="st0" cx="316.8" cy="283.3" r="1.9"/>
	</g>
	<g>
		<ellipse class="st0" cx="278.1" cy="190.3" rx="1" ry="1"/>
	</g>
	<g>
		<circle class="st0" cx="240.9" cy="106.8" r="2"/>
	</g>
	<g>
		<ellipse class="st0" cx="195.2" cy="169.2" rx="0.9" ry="0.9"/>
	</g>
	<g>
		<path class="st1" d="M156.9,142.5c0,0.7-0.6,1.3-1.3,1.3c-0.7,0-1.3-0.6-1.3-1.3c0-0.7,0.6-1.3,1.3-1.3
			C156.4,141.2,156.9,141.8,156.9,142.5z"/>
	</g>
	<g>
		<ellipse class="st0" cx="128.8" cy="314.7" rx="1.8" ry="1.8"/>
	</g>
	<g>
		<path class="st3" d="M92.6,144.5c0,1.1-0.9,2-2,2c-1.1,0-2-0.9-2-2c0-1.1,0.9-2,2-2C91.7,142.5,92.6,143.4,92.6,144.5z"/>
	</g>
	<g>
		<circle class="st1" cx="57.3" cy="271" r="2"/>
	</g>
	<g>
		<path class="st0" d="M-7.9,42.5c0,0.6-0.5,1.1-1.1,1.1c-0.6,0-1.1-0.5-1.1-1.1c0-0.6,0.5-1.1,1.1-1.1C-8.4,41.5-7.9,41.9-7.9,42.5
			z"/>
	</g>
	<g>
		<ellipse class="st1" cx="59.9" cy="295.3" rx="1.8" ry="1.8"/>
	</g>
	<g>
		<ellipse class="st0" cx="-7.4" cy="164.1" rx="2" ry="2"/>
	</g>
	<g>
		<circle class="st0" cx="66.1" cy="92.4" r="1.9"/>
	</g>
	<g>
		<circle class="st0" cx="151.5" cy="258" r="1.5"/>
	</g>
	<g>
		<circle class="st3" cx="183.1" cy="210.5" r="1.7"/>
	</g>
	<g>
		<path class="st1" d="M458.6,358.9c0,1.1-0.9,2-2,2c-1.1,0-2-0.9-2-2c0-1.1,0.9-2,2-2C457.7,357,458.6,357.9,458.6,358.9z"/>
	</g>
	<g>
		<circle class="st1" cx="263.8" cy="304" r="1"/>
	</g>
	<g>
		<circle class="st0" cx="284.2" cy="264.4" r="1.8"/>
	</g>
	<g>
		<circle class="st0" cx="319" cy="245.8" r="1.4"/>
	</g>
	<g>
		<path class="st0" d="M343.5,172.2c0,1-0.8,1.9-1.9,1.9c-1,0-1.9-0.8-1.9-1.9c0-1,0.8-1.9,1.9-1.9
			C342.7,170.3,343.5,171.2,343.5,172.2z"/>
	</g>
	<g>
		<path class="st0" d="M410.9,269.3c0,0.8-0.6,1.4-1.4,1.4c-0.8,0-1.4-0.6-1.4-1.4c0-0.8,0.6-1.4,1.4-1.4
			C410.3,267.9,410.9,268.6,410.9,269.3z"/>
	</g>
	<g>
		<ellipse class="st0" cx="413.3" cy="117.1" rx="2" ry="2"/>
	</g>
	<g>
		<path class="st0" d="M446.5,119c0,0.9-0.7,1.6-1.6,1.6c-0.9,0-1.6-0.7-1.6-1.6c0-0.9,0.7-1.6,1.6-1.6
			C445.8,117.4,446.5,118.1,446.5,119z"/>
	</g>
	<g>
		<circle class="st0" cx="485.2" cy="159.3" r="1.4"/>
	</g>
	<g>
		<path class="st0" d="M536.4,223.6c0,1.1-0.9,2-2,2c-1.1,0-2-0.9-2-2c0-1.1,0.9-2,2-2C535.5,221.6,536.4,222.5,536.4,223.6z"/>
	</g>
	<g>
		<path class="st0" d="M626.3,183.1c0,0.8-0.6,1.5-1.5,1.5c-0.8,0-1.5-0.7-1.5-1.5c0-0.8,0.7-1.5,1.5-1.5
			C625.7,181.6,626.3,182.3,626.3,183.1z"/>
	</g>
	<g>
		<path class="st0" d="M493.5,117.5c0,0.9-0.7,1.5-1.5,1.5c-0.8,0-1.5-0.7-1.5-1.5c0-0.8,0.7-1.5,1.5-1.5
			C492.8,115.9,493.5,116.6,493.5,117.5z"/>
	</g>
	<g>
		<circle class="st0" cx="75.5" cy="69.3" r="1.4"/>
	</g>
</g>
</svg>
